<svg width="48" height="48" viewBox="0 0 48 48" fill="none" xmlns="http://www.w3.org/2000/svg">
<rect width="48" height="48" fill="#F5F5F5"/>
<line x1="4" y1="2.5" x2="44" y2="2.5" stroke="black"/>
<line x1="4" y1="45.5" x2="44" y2="45.5" stroke="black"/>
<path d="M2.5 4C2.5 2.8 3.5 2.5 4 2.5" stroke="black"/>
<path d="M44 2.5C45.2 2.5 45.5 3.5 45.5 4M2.5 44C2.5 45.2 3.5 45.5 4 45.5M45.5 44C45.5 45.2 44.5 45.5 44 45.5" stroke="black"/>
<line x1="3" y1="9.5" x2="46" y2="9.5" stroke="black"/>
<circle cx="7" cy="6" r="1.5" fill="#6DB1FE" stroke="black"/>
<circle cx="13" cy="6" r="1.5" fill="#6DB1FE" stroke="black"/>
<path d="M20.5 6C20.5 6.82843 19.8284 7.5 19 7.5C18.1716 7.5 17.5 6.82843 17.5 6C17.5 5.17157 18.1716 4.5 19 4.5C19.8284 4.5 20.5 5.17157 20.5 6Z" fill="#6DB1FE" stroke="black"/>
<path d="M10 33L18 18" stroke="black"/>
<path d="M9 20L5 25L9 30" stroke="black"/>
<path d="M20 30L24 25L20 20" stroke="black"/>
<rect x="27.5" y="16.5" width="13" height="3" rx="1.5" fill="#6DB1FE" stroke="black"/>
<rect x="26.5" y="25.5" width="15" height="3" rx="1.5" fill="#6DB1FE" stroke="black"/>
<rect x="27.5" y="34.5" width="13" height="3" rx="1.5" fill="#6DB1FE" stroke="black"/>
<line x1="2.5" y1="4" x2="2.5" y2="44" stroke="black"/>
<line x1="2.5" y1="4" x2="2.5" y2="44" stroke="black"/>
<line x1="45.5" y1="4" x2="45.5" y2="44" stroke="black"/>
</svg>
