<?xml version="1.0" encoding="UTF-8"?>
<svg version="1.1" xmlns="http://www.w3.org/2000/svg" width="512" height="512">
<path d="M0 0 C3.01542986 4.01074289 3.67903767 7.93779238 4.1875 12.8125 C4.26935547 13.50537109 4.35121094 14.19824219 4.43554688 14.91210938 C4.63424293 16.60686984 4.81859203 18.30330194 5 20 C5.70084717 19.97905273 6.40169434 19.95810547 7.1237793 19.93652344 C10.31153919 19.85316952 13.49906952 19.80127861 16.6875 19.75 C18.34168945 19.69972656 18.34168945 19.69972656 20.02929688 19.6484375 C28.16927902 19.55006914 28.16927902 19.55006914 32.14453125 21.703125 C35.80151743 26.23008894 36.23655168 30.0963752 36.09005737 35.82421875 C36.07605446 36.50093685 36.06205154 37.17765495 36.04762429 37.87487966 C36.01584809 39.35812824 35.9793419 40.84128118 35.93871605 42.32431376 C35.84943207 45.61061332 35.78508756 48.89729528 35.71839744 52.18411857 C35.68180444 53.97009781 35.64397254 55.75605203 35.60499972 57.54198092 C33.62290411 148.67217968 35.89177495 237.28457363 51.0625 327.3125 C51.22942195 328.30404839 51.3963439 329.29559677 51.56832409 330.31719208 C54.51230411 347.77123484 57.52255174 365.2139796 60.75688171 382.61677551 C60.90162611 383.39812374 61.0463705 384.17947198 61.19550109 384.98449743 C61.86571936 388.59856736 62.54252352 392.21110565 63.23417473 395.82113647 C63.46833155 397.07003159 63.70248837 398.3189267 63.94374084 399.60566711 C64.14892365 400.67940236 64.35410646 401.75313761 64.56550694 402.85941029 C65.25527113 407.84514313 65.65541436 411.68917127 63.375 416.25 C58.92223246 421.4058361 53.67690062 422.49548724 47.125 423.1875 C46.43664062 423.26935547 45.74828125 423.35121094 45.0390625 423.43554688 C43.36052643 423.63370738 41.68039519 423.81827787 40 424 C40.33 424.66 40.66 425.32 41 426 C41.23828125 428.35546875 41.23828125 428.35546875 41.3125 431.1875 C41.34988281 432.10917969 41.38726562 433.03085937 41.42578125 433.98046875 C41 437 41 437 37 444 C44.26 444 51.52 444 59 444 C59.33 445.65 59.66 447.3 60 449 C-91.8 449 -243.6 449 -400 449 C-400.33 447.68 -400.66 446.36 -401 445 C-398.9431054 442.9431054 -394.64444002 443.74252924 -391.80859375 443.68359375 C-390.98875504 443.66281265 -390.16891632 443.64203156 -389.32423401 443.62062073 C-386.69541099 443.55503506 -384.06648496 443.49619874 -381.4375 443.4375 C-379.65949439 443.39432333 -377.88149935 443.35070933 -376.10351562 443.30664062 C-371.73578366 443.19934457 -367.36794773 443.09810296 -363 443 C-364.40717285 442.21532349 -364.40717285 442.21532349 -365.84277344 441.41479492 C-367.09843738 440.70775051 -368.3539639 440.00046201 -369.609375 439.29296875 C-370.22474121 438.95068237 -370.84010742 438.608396 -371.47412109 438.2557373 C-390.69516143 427.38533999 -402.28626878 410.35417412 -408.4375 389.5 C-413.67210788 368.16484589 -409.83284138 346.58063084 -399.06005859 327.74658203 C-396.45288625 323.45093235 -393.38971598 319.69375539 -390 316 C-389.32453125 315.23300781 -388.6490625 314.46601563 -387.953125 313.67578125 C-378.17495907 303.16603722 -364.06130896 295.15662038 -350 292 C-348.68 292 -347.36 292 -346 292 C-346 290.68 -346 289.36 -346 288 C-347.5778125 287.6596875 -347.5778125 287.6596875 -349.1875 287.3125 C-354.64762246 285.75719239 -357.92820277 281.60769584 -361 277 C-363.26774945 270.19675164 -363.17477642 260.74192236 -360.4375 254.0625 C-356.06100887 245.90840601 -349.63814576 239.48619691 -340.9140625 236.21875 C-332.91181286 234.02318692 -324.59185956 234.83380237 -317 238 C-317.14007257 237.10123925 -317.28014513 236.2024785 -317.42446232 235.27648258 C-320.83399782 213.39427454 -324.23061033 191.51009466 -327.61290073 169.62365818 C-329.24887013 159.03953452 -330.88918537 148.45611882 -332.53979492 137.87426758 C-333.9786744 128.6497185 -335.40933612 119.42393863 -336.83019871 110.19659656 C-337.58262101 105.31212523 -338.3391062 100.42836266 -339.10544014 95.54605293 C-339.82716556 90.94709649 -340.53785936 86.34656811 -341.24026871 81.74462318 C-341.49944679 80.05942213 -341.7625877 78.37482482 -342.03006935 76.69092178 C-345.28583962 56.15983712 -345.28583962 56.15983712 -340.875 50.0625 C-335.44647728 46.168125 -329.04402642 45.59846407 -322.5625 44.875 C-321.83095703 44.78863281 -321.09941406 44.70226562 -320.34570312 44.61328125 C-318.56439906 44.40371607 -316.78227719 44.20112132 -315 44 C-315.04640625 42.91460937 -315.0928125 41.82921875 -315.140625 40.7109375 C-315.17816487 39.26565269 -315.21456264 37.82033789 -315.25 36.375 C-315.28351563 35.66214844 -315.31703125 34.94929688 -315.3515625 34.21484375 C-315.44719726 29.00274916 -314.44758641 26.12966286 -311 22 C-307.64922481 19.76614987 -306.72211246 19.7734035 -302.83099365 19.86956787 C-301.75489051 19.89025298 -300.67878736 19.91093809 -299.57007504 19.93225002 C-297.79080293 19.98077161 -297.79080293 19.98077161 -295.97558594 20.03027344 C-294.04420437 20.06840125 -292.11282149 20.10648358 -290.18140978 20.14305252 C-288.08311529 20.18363318 -285.98492526 20.22815999 -283.88671303 20.27277565 C-213.45398001 21.7149149 -145.01428442 19.5907537 -75.4375 7.9375 C-74.65436872 7.80642035 -73.87123745 7.67534069 -73.06437492 7.54028893 C-59.26505829 5.22589683 -45.47400705 2.86310308 -31.71330261 0.32841492 C-30.4907288 0.10418476 -29.26815498 -0.12004539 -28.00853348 -0.3510704 C-25.7567048 -0.76633958 -23.50589397 -1.187187 -21.25640488 -1.61494827 C-6.57191434 -4.331489 -6.57191434 -4.331489 0 0 Z M-345.3125 255.4375 C-348.50490505 260.28522619 -349.73324846 264.13401232 -349 270 C-346.71871506 272.99826021 -345.03347588 274.61244655 -341.5 275.9375 C-338.97063288 276.17953326 -338.97063288 276.17953326 -336.75 275 C-331.99426829 273.27064302 -327.04741111 274.44161515 -322.25 275.75 C-319.88760986 276.19006341 -319.88760986 276.19006341 -317.3984375 274.97265625 C-314.65897234 273.14482742 -314.65897234 273.14482742 -314.3359375 269.63671875 C-314.05454118 261.49457382 -314.05454118 261.49457382 -317.125 254.25 C-322.57800281 249.98243259 -326.63243521 248.4200768 -333.53515625 248.6484375 C-338.58809288 249.36914162 -341.80331377 251.73862803 -345.3125 255.4375 Z M-316 288 C-315 292 -315 292 -315 292 Z " fill="#FDFEFE" transform="translate(425,33)"/>
<path d="M0 0 C3.01542986 4.01074289 3.67903767 7.93779238 4.1875 12.8125 C4.26935547 13.50537109 4.35121094 14.19824219 4.43554688 14.91210938 C4.63424293 16.60686984 4.81859203 18.30330194 5 20 C5.70084717 19.97905273 6.40169434 19.95810547 7.1237793 19.93652344 C10.31153919 19.85316952 13.49906952 19.80127861 16.6875 19.75 C18.34168945 19.69972656 18.34168945 19.69972656 20.02929688 19.6484375 C28.16927902 19.55006914 28.16927902 19.55006914 32.14453125 21.703125 C35.80151743 26.23008894 36.23655168 30.0963752 36.09005737 35.82421875 C36.07605446 36.50093685 36.06205154 37.17765495 36.04762429 37.87487966 C36.01584809 39.35812824 35.9793419 40.84128118 35.93871605 42.32431376 C35.84943207 45.61061332 35.78508756 48.89729528 35.71839744 52.18411857 C35.68180444 53.97009781 35.64397254 55.75605203 35.60499972 57.54198092 C33.62290411 148.67217968 35.89177495 237.28457363 51.0625 327.3125 C51.22942195 328.30404839 51.3963439 329.29559677 51.56832409 330.31719208 C54.51230411 347.77123484 57.52255174 365.2139796 60.75688171 382.61677551 C60.90162611 383.39812374 61.0463705 384.17947198 61.19550109 384.98449743 C61.86571936 388.59856736 62.54252352 392.21110565 63.23417473 395.82113647 C63.46833155 397.07003159 63.70248837 398.3189267 63.94374084 399.60566711 C64.14892365 400.67940236 64.35410646 401.75313761 64.56550694 402.85941029 C65.25527113 407.84514313 65.65541436 411.68917127 63.375 416.25 C58.92223246 421.4058361 53.67690062 422.49548724 47.125 423.1875 C46.43664062 423.26935547 45.74828125 423.35121094 45.0390625 423.43554688 C43.36052643 423.63370738 41.68039519 423.81827787 40 424 C40.33 424.66 40.66 425.32 41 426 C41.23828125 428.35546875 41.23828125 428.35546875 41.3125 431.1875 C41.34988281 432.10917969 41.38726562 433.03085937 41.42578125 433.98046875 C41 437 41 437 37 444 C44.26 444 51.52 444 59 444 C59.33 445.65 59.66 447.3 60 449 C-91.8 449 -243.6 449 -400 449 C-400.33 447.68 -400.66 446.36 -401 445 C-398.9431054 442.9431054 -394.64444002 443.74252924 -391.80859375 443.68359375 C-390.98875504 443.66281265 -390.16891632 443.64203156 -389.32423401 443.62062073 C-386.69541099 443.55503506 -384.06648496 443.49619874 -381.4375 443.4375 C-379.65949439 443.39432333 -377.88149935 443.35070933 -376.10351562 443.30664062 C-371.73578366 443.19934457 -367.36794773 443.09810296 -363 443 C-364.40717285 442.21532349 -364.40717285 442.21532349 -365.84277344 441.41479492 C-367.09843738 440.70775051 -368.3539639 440.00046201 -369.609375 439.29296875 C-370.22474121 438.95068237 -370.84010742 438.608396 -371.47412109 438.2557373 C-390.69516143 427.38533999 -402.28626878 410.35417412 -408.4375 389.5 C-413.67210788 368.16484589 -409.83284138 346.58063084 -399.06005859 327.74658203 C-396.45288625 323.45093235 -393.38971598 319.69375539 -390 316 C-389.32453125 315.23300781 -388.6490625 314.46601563 -387.953125 313.67578125 C-378.17495907 303.16603722 -364.06130896 295.15662038 -350 292 C-348.68 292 -347.36 292 -346 292 C-346 290.68 -346 289.36 -346 288 C-347.5778125 287.6596875 -347.5778125 287.6596875 -349.1875 287.3125 C-354.64762246 285.75719239 -357.92820277 281.60769584 -361 277 C-363.26774945 270.19675164 -363.17477642 260.74192236 -360.4375 254.0625 C-356.06100887 245.90840601 -349.63814576 239.48619691 -340.9140625 236.21875 C-332.91181286 234.02318692 -324.59185956 234.83380237 -317 238 C-317.14007257 237.10123925 -317.28014513 236.2024785 -317.42446232 235.27648258 C-320.83399782 213.39427454 -324.23061033 191.51009466 -327.61290073 169.62365818 C-329.24887013 159.03953452 -330.88918537 148.45611882 -332.53979492 137.87426758 C-333.9786744 128.6497185 -335.40933612 119.42393863 -336.83019871 110.19659656 C-337.58262101 105.31212523 -338.3391062 100.42836266 -339.10544014 95.54605293 C-339.82716556 90.94709649 -340.53785936 86.34656811 -341.24026871 81.74462318 C-341.49944679 80.05942213 -341.7625877 78.37482482 -342.03006935 76.69092178 C-345.28583962 56.15983712 -345.28583962 56.15983712 -340.875 50.0625 C-335.44647728 46.168125 -329.04402642 45.59846407 -322.5625 44.875 C-321.83095703 44.78863281 -321.09941406 44.70226562 -320.34570312 44.61328125 C-318.56439906 44.40371607 -316.78227719 44.20112132 -315 44 C-315.04640625 42.91460937 -315.0928125 41.82921875 -315.140625 40.7109375 C-315.17816487 39.26565269 -315.21456264 37.82033789 -315.25 36.375 C-315.28351563 35.66214844 -315.31703125 34.94929688 -315.3515625 34.21484375 C-315.44719726 29.00274916 -314.44758641 26.12966286 -311 22 C-307.64922481 19.76614987 -306.72211246 19.7734035 -302.83099365 19.86956787 C-301.75489051 19.89025298 -300.67878736 19.91093809 -299.57007504 19.93225002 C-297.79080293 19.98077161 -297.79080293 19.98077161 -295.97558594 20.03027344 C-294.04420437 20.06840125 -292.11282149 20.10648358 -290.18140978 20.14305252 C-288.08311529 20.18363318 -285.98492526 20.22815999 -283.88671303 20.27277565 C-213.45398001 21.7149149 -145.01428442 19.5907537 -75.4375 7.9375 C-74.65436872 7.80642035 -73.87123745 7.67534069 -73.06437492 7.54028893 C-59.26505829 5.22589683 -45.47400705 2.86310308 -31.71330261 0.32841492 C-30.4907288 0.10418476 -29.26815498 -0.12004539 -28.00853348 -0.3510704 C-25.7567048 -0.76633958 -23.50589397 -1.187187 -21.25640488 -1.61494827 C-6.57191434 -4.331489 -6.57191434 -4.331489 0 0 Z M-309.28549671 25.99490738 C-311.59394163 30.04103014 -311.70045095 33.12725508 -311.64164734 37.71640015 C-311.65015286 38.59369707 -311.65865838 39.47099399 -311.66742164 40.37487566 C-311.68970711 43.31461616 -311.67624983 46.25309268 -311.6628418 49.19287109 C-311.67125405 51.30045987 -311.68177875 53.40804113 -311.69425964 55.51560974 C-311.72135003 61.24094074 -311.71659531 66.96583673 -311.70455909 72.69120359 C-311.69743477 77.47010994 -311.70592243 82.24893547 -311.71446449 87.02783549 C-311.73442998 98.30215943 -311.72883306 109.5762714 -311.70678711 120.85058594 C-311.68442846 132.48245191 -311.7020133 144.11376276 -311.73983639 155.74557626 C-311.77106685 165.7313095 -311.77898708 175.71687086 -311.76788265 185.70264685 C-311.76139296 191.66708117 -311.76341046 197.6311952 -311.78720665 203.5955925 C-311.80844659 209.20514018 -311.80049585 214.81390453 -311.77011299 220.42340279 C-311.76378113 222.48130939 -311.76765707 224.53927671 -311.78252411 226.59713936 C-311.80118969 229.40886872 -311.78281039 232.21803129 -311.75517273 235.02963257 C-311.76923918 235.84238596 -311.78330563 236.65513936 -311.79779834 237.49252164 C-311.67338886 243.78165472 -309.33829341 246.64626771 -305 251 C-300.71318843 257.54483798 -300.00048236 264.33023197 -301 272 C-302.35207593 277.10446642 -303.72791392 280.19271461 -308.25 283.0625 C-311.17420036 284.64579363 -311.17420036 284.64579363 -311.3828125 287.01171875 C-311.40992741 289.50691562 -311.40992741 289.50691562 -311 293 C-309.92685547 293.41958984 -309.92685547 293.41958984 -308.83203125 293.84765625 C-280.56944262 305.21850368 -280.56944262 305.21850368 -273.8927002 315.74591064 C-271.74768445 318.96175338 -270.15264025 320.74613654 -266.29527283 321.59570312 C-262.88264482 321.76076453 -259.53533005 321.70767927 -256.12109375 321.578125 C-254.87626724 321.56110535 -253.63144073 321.54408569 -252.34889221 321.52655029 C-249.05024104 321.47758468 -245.75404034 321.3999924 -242.4564209 321.30578613 C-237.81003337 321.17739874 -233.16295957 321.09011263 -228.51539612 321.01629639 C-226.0442877 320.974882 -223.5733917 320.91659978 -221.10313416 320.83966064 C-219.9816951 320.81684021 -218.86025604 320.79401978 -217.70483398 320.77050781 C-216.72143539 320.74273254 -215.7380368 320.71495728 -214.72483826 320.68634033 C-211.45265392 321.06300572 -209.64242007 322.06375823 -207 324 C-205.1875 326.6875 -205.1875 326.6875 -204 329 C-202.35 328.67 -200.7 328.34 -199 328 C-200.15173355 330.46800047 -201.04783565 332.04783565 -203 334 C-203.30279489 336.09881132 -203.30279489 336.09881132 -203.25537109 338.53808594 C-203.26233002 339.47956482 -203.26928894 340.4210437 -203.27645874 341.39105225 C-203.27496323 342.92224701 -203.27496323 342.92224701 -203.2734375 344.484375 C-203.2937331 346.63802597 -203.31458401 348.79167176 -203.3359375 350.9453125 C-203.35851541 354.34672396 -203.37499643 357.74793118 -203.38085938 361.14941406 C-203.39039325 364.42811214 -203.42419185 367.70588462 -203.4609375 370.984375 C-203.45589203 371.99707458 -203.45084656 373.00977417 -203.44564819 374.05316162 C-203.52563782 379.8071917 -203.88513139 383.60034404 -208 388 C-212.41097308 390.77398853 -217.61735372 390.34862241 -222.67578125 390.4140625 C-224.06351997 390.44311172 -224.06351997 390.44311172 -225.47929382 390.4727478 C-228.42360317 390.53235254 -231.36795202 390.57885248 -234.3125 390.625 C-236.31316775 390.66319736 -238.31381936 390.70225012 -240.31445312 390.7421875 C-245.2095038 390.83803841 -250.10463145 390.92214 -255 391 C-255.31743164 391.78938965 -255.63486328 392.5787793 -255.96191406 393.39208984 C-261.06850182 405.90227356 -267.39368523 416.36050279 -277 426 C-278.01126953 427.04607422 -278.01126953 427.04607422 -279.04296875 428.11328125 C-285.69000486 434.53583959 -295.72780745 441.34174894 -305 443 C-305 443.66 -305 444.32 -305 445 C-259.13 445 -213.26 445 -166 445 C-167.42626087 442.14747826 -169.21785296 441.85796431 -172.12890625 440.6171875 C-173.16337891 440.17246094 -174.19785156 439.72773438 -175.26367188 439.26953125 C-176.8965918 438.57923828 -176.8965918 438.57923828 -178.5625 437.875 C-179.65498047 437.40707031 -180.74746094 436.93914062 -181.87304688 436.45703125 C-184.57957416 435.2987794 -187.28857919 434.14673861 -190 433 C-190 432.01 -190 431.02 -190 430 C-165.54719381 415.8973196 -144.82930522 412.84352785 -116.89856553 413.44615936 C-111.87698846 413.53807225 -106.85522059 413.54221362 -101.83293152 413.55712891 C-92.37322645 413.59812731 -82.91619314 413.71611742 -73.45760792 413.86317253 C-62.69008315 414.0263172 -51.92252467 414.09539027 -41.1540333 414.15991974 C-25.28438244 414.25834591 -9.41484773 414.3887819 6.45357132 414.61249161 C8.1587568 414.63615622 9.8639636 414.65833826 11.56918907 414.67892075 C13.89726823 414.70760626 16.22517862 414.74228975 18.55314636 414.77880859 C19.85425952 414.79736908 21.15537268 414.81592957 22.49591351 414.83505249 C25.74988724 414.98822647 28.79707166 415.43601311 32 416 C32.11437501 366.78362711 32.20251309 317.56726763 32.25532665 268.35078805 C32.26158039 262.54399845 32.26805198 256.73720912 32.2746582 250.93041992 C32.27596976 249.77436356 32.27728131 248.61830719 32.2786326 247.42721882 C32.30040563 228.6937956 32.3398376 209.96044888 32.38576398 191.22707108 C32.43247583 172.01345087 32.46028423 152.7998708 32.47044247 133.58619612 C32.47731257 121.72458541 32.49903259 109.8631909 32.53958233 98.00164672 C32.56595563 89.87433954 32.57401329 81.74714458 32.56750689 73.61979768 C32.56429555 68.92648727 32.56931367 64.23355539 32.59602737 59.54031181 C32.62029118 55.24625033 32.62163269 50.95282328 32.60449447 46.65873309 C32.60237517 45.10278705 32.60877629 43.54680204 32.62441591 41.99093316 C32.64441068 39.87956147 32.63371808 37.77049599 32.61523914 35.65916157 C32.61713775 34.48544603 32.61903635 33.31173049 32.62099248 32.10244781 C31.7952958 27.97730792 30.33443725 26.5067373 27 24 C24.22385521 23.26064168 24.22385521 23.26064168 21.19814301 23.3707943 C20.03130053 23.35775556 18.86445806 23.34471682 17.66225672 23.33128297 C16.38454574 23.34243658 15.10683476 23.35359019 13.79040527 23.36508179 C12.41608443 23.35932021 11.04177129 23.35137883 9.66747427 23.34144557 C5.8914905 23.32055333 2.11613773 23.3308977 -1.65984845 23.34637666 C-5.73219427 23.35767672 -9.8044306 23.34023418 -13.87675476 23.32647705 C-21.85419371 23.30422565 -29.83139766 23.30905425 -37.80884588 23.32354026 C-44.29135086 23.33482504 -50.7737899 23.3363667 -57.25630188 23.33092117 C-58.17837611 23.33015501 -59.10045034 23.32938884 -60.05046621 23.32859946 C-61.9235509 23.32700086 -63.79663558 23.32537979 -65.66972023 23.3237365 C-83.24011335 23.30947343 -100.81037611 23.32588047 -118.38074785 23.35273834 C-133.46206777 23.37507763 -148.54319527 23.37119765 -163.62451172 23.34814453 C-181.13135176 23.32139637 -198.63807751 23.31084678 -216.14493513 23.32620585 C-218.01118944 23.32779862 -219.87744377 23.32937047 -221.74369812 23.33092117 C-223.12110345 23.33207824 -223.12110345 23.33207824 -224.52633515 23.33325868 C-231.00222921 23.33757864 -237.47805087 23.33028277 -243.95393372 23.31852341 C-251.84424811 23.30451079 -259.73431374 23.30827216 -267.62459958 23.33492713 C-271.65162291 23.34808214 -275.67823128 23.35318939 -279.70525169 23.33668137 C-283.39041368 23.32180302 -287.07477534 23.32993372 -290.75986451 23.35656913 C-292.72732934 23.36481735 -294.69484955 23.34845719 -296.66225672 23.33128297 C-303.31127357 23.37910101 -303.31127357 23.37910101 -309.28549671 25.99490738 Z M-345.3125 255.4375 C-348.50490505 260.28522619 -349.73324846 264.13401232 -349 270 C-346.71871506 272.99826021 -345.03347588 274.61244655 -341.5 275.9375 C-338.97063288 276.17953326 -338.97063288 276.17953326 -336.75 275 C-331.99426829 273.27064302 -327.04741111 274.44161515 -322.25 275.75 C-319.88760986 276.19006341 -319.88760986 276.19006341 -317.3984375 274.97265625 C-314.65897234 273.14482742 -314.65897234 273.14482742 -314.3359375 269.63671875 C-314.05454118 261.49457382 -314.05454118 261.49457382 -317.125 254.25 C-322.57800281 249.98243259 -326.63243521 248.4200768 -333.53515625 248.6484375 C-338.58809288 249.36914162 -341.80331377 251.73862803 -345.3125 255.4375 Z M-316 288 C-315 292 -315 292 -315 292 Z " fill="#3C507F" transform="translate(425,33)"/>
<path d="M0 0 C1.56002428 -0.1363128 3.12357176 -0.23259126 4.6875 -0.3125 C5.55761719 -0.37050781 6.42773438 -0.42851563 7.32421875 -0.48828125 C11.23202781 0.22482259 12.62381459 1.8804613 15 5 C15.62099248 8.10244781 15.62099248 8.10244781 15.61523914 11.65916157 C15.62100836 12.31833141 15.62677759 12.97750124 15.63272163 13.65664592 C15.64597613 15.86949556 15.62351526 18.08053252 15.60127258 20.29328918 C15.60345273 21.89390653 15.60783021 23.49452215 15.61421841 25.09512824 C15.62541267 29.49646863 15.60537987 33.89720209 15.58032811 38.29846513 C15.55876216 43.04347945 15.5660408 47.78845877 15.56983948 52.5335083 C15.57246291 60.75557902 15.55675799 68.97745156 15.52865028 77.19947243 C15.48803766 89.08714158 15.47499535 100.97471478 15.46871033 112.86244579 C15.45776363 132.14883006 15.42447924 151.43510866 15.37719727 170.72143555 C15.33131139 189.45775829 15.29591471 208.19405235 15.2746582 226.93041992 C15.27334459 228.08507359 15.27203097 229.23972726 15.27067754 230.42937044 C15.26415242 236.22185266 15.25783386 242.01433509 15.25161803 247.80681765 C15.19977335 295.8712848 15.11169783 343.93563725 15 392 C13.6240126 391.75734381 13.6240126 391.75734381 12.22022748 391.50978547 C8.60967328 390.93820844 5.16173276 390.83991106 1.50604248 390.79899597 C0.77197056 390.78967476 0.03789864 390.78035354 -0.71841788 390.77074987 C-3.16804426 390.74110616 -5.61768026 390.71844809 -8.06738281 390.69604492 C-9.82901779 390.67667026 -11.59065003 390.65704613 -13.35227966 390.63719177 C-29.47642969 390.46343884 -45.60150094 390.37007475 -61.72638321 390.29612255 C-73.61635238 390.24043626 -85.50467519 390.14605654 -97.39388967 390.00046462 C-105.78411871 389.90124152 -114.17390181 389.8492584 -122.56469035 389.83026773 C-127.55857522 389.81761763 -132.55032703 389.78516456 -137.54355621 389.70067406 C-160.07341187 389.33541642 -177.84200514 389.80733278 -197.6674118 401.64689064 C-200.68745161 403.3987833 -203.75713723 404.71691699 -207 406 C-207 406.99 -207 407.98 -207 409 C-206.30849854 409.29245605 -205.61699707 409.58491211 -204.90454102 409.88623047 C-201.78757749 411.20899203 -198.67503142 412.54184495 -195.5625 413.875 C-194.47388672 414.33519531 -193.38527344 414.79539062 -192.26367188 415.26953125 C-191.22919922 415.71425781 -190.19472656 416.15898437 -189.12890625 416.6171875 C-188.17056885 417.02565918 -187.21223145 417.43413086 -186.22485352 417.85498047 C-184 419 -184 419 -183 421 C-228.87 421 -274.74 421 -322 421 C-322 420.34 -322 419.68 -322 419 C-321.39414062 418.78085937 -320.78828125 418.56171875 -320.1640625 418.3359375 C-300.96206194 411.06871883 -286.3111799 397.23816064 -277 379 C-275.21688169 375.04201768 -273.55874393 371.05129759 -272 367 C-269.03 367 -266.06 367 -263 367 C-264.94987486 384.68334784 -276.50153398 399.98912043 -289 412 C-291.97 414.31 -294.94 416.62 -298 419 C-268.96 419 -239.92 419 -210 419 C-217.92 415.37 -225.84 411.74 -234 408 C-231.15029295 405.86271971 -229.20782935 404.49422843 -226.09619141 403.10229492 C-225.34085114 402.76151413 -224.58551086 402.42073334 -223.80728149 402.06962585 C-222.99689423 401.71020401 -222.18650696 401.35078217 -221.3515625 400.98046875 C-220.07809464 400.40888786 -220.07809464 400.40888786 -218.77890015 399.82575989 C-216.06300285 398.60832139 -213.34401347 397.39796023 -210.625 396.1875 C-208.83444126 395.3851988 -207.0440747 394.58246856 -205.25390625 393.77929688 C-203.49496184 392.99180729 -201.73585205 392.20468698 -199.9765625 391.41796875 C-199.18641754 391.0646196 -198.39627258 390.71127045 -197.58218384 390.34721375 C-195.96186893 389.62600117 -194.33707809 388.91477864 -192.70845032 388.21253967 C-190.73929433 387.33097292 -188.79780577 386.38679234 -186.87590027 385.40647888 C-177.91073902 381.06031913 -170.73041723 380.21319869 -160.903368 380.45551109 C-158.46530018 380.51337673 -156.02989087 380.52914224 -153.59117126 380.53486633 C-146.67098171 380.55864432 -139.75239526 380.65790965 -132.83325195 380.77661133 C-128.56981555 380.84689845 -124.30783586 380.8721436 -120.04385185 380.87244606 C-118.44001076 380.88180391 -116.83615892 380.90818356 -115.23292732 380.95337486 C-102.73208133 381.3051036 -95.09522324 378.31766665 -85 371 C-84.24886932 370.47743118 -83.49773865 369.95486237 -82.72384644 369.41645813 C-81.04448173 368.20934558 -79.424686 366.92047012 -77.8125 365.625 C-77.25280518 365.17656738 -76.69311035 364.72813477 -76.11645508 364.26611328 C-69.82581164 359.16166497 -63.72977428 353.72977428 -58 348 C-104.2 347.67 -150.4 347.34 -198 347 C-198 345.68 -198 344.36 -198 343 C-179.66769764 342.97665654 -161.33539914 342.95901369 -143.00308514 342.94818783 C-134.4913909 342.94302796 -125.97970589 342.93599111 -117.46801758 342.92456055 C-110.05064905 342.91460431 -102.63328719 342.90814432 -95.21591216 342.90591151 C-91.2872048 342.904606 -87.35851654 342.90153023 -83.42981529 342.89426994 C-79.73384525 342.88749492 -76.03790224 342.88538608 -72.34192657 342.88689232 C-70.33504899 342.88648498 -68.32817436 342.88109748 -66.32130432 342.87557983 C-65.13078461 342.8769545 -63.94026489 342.87832916 -62.71366882 342.87974548 C-61.67665172 342.87882369 -60.63963461 342.8779019 -59.57119274 342.87695217 C-57 343 -57 343 -54 344 C-52.51002007 342.44780797 -51.03383752 340.88237458 -49.5625 339.3125 C-48.73878906 338.44238281 -47.91507812 337.57226562 -47.06640625 336.67578125 C-42.67124469 331.40718631 -38.90544162 325.64119345 -35 320 C-88.46 320 -141.92 320 -197 320 C-197.33 318.68 -197.66 317.36 -198 316 C-197 315 -197 315 -194.26885128 314.87695217 C-192.42296083 314.87833486 -192.42296083 314.87833486 -190.53977966 314.87974548 C-189.51556816 314.87846385 -189.51556816 314.87846385 -188.47066551 314.87715632 C-186.16588309 314.87549957 -183.86117228 314.88102603 -181.55639648 314.88647461 C-179.91094972 314.88675647 -178.26550284 314.88659878 -176.62005615 314.8860321 C-172.13884241 314.88574407 -167.65765519 314.89164179 -163.17644763 314.89860606 C-158.49857895 314.90483858 -153.82070972 314.90544332 -149.14283752 314.90663147 C-140.27824832 314.90974509 -131.41367138 314.91795889 -122.54908758 314.92798096 C-112.45977798 314.93914115 -102.3704678 314.94465231 -92.28115356 314.94967639 C-71.52076218 314.96014148 -50.76038186 314.97774151 -30 315 C-29.69099762 314.21580688 -29.38199524 313.43161377 -29.06362915 312.62365723 C-28.13288735 310.32779361 -27.10990969 308.24917685 -25.8984375 306.09375 C-17.58547984 291.0120014 -11.38917814 275.56732289 -6.6875 259 C-6.34187012 257.81216919 -6.34187012 257.81216919 -5.98925781 256.6003418 C-1.33367977 239.27181543 -0.5528187 221.61494986 -0.56762695 203.77807617 C-0.55858378 201.53854847 -0.54825044 199.29902567 -0.53674316 197.05950928 C-0.50944682 191.0506004 -0.49992633 185.0417861 -0.49388909 179.03282332 C-0.48443331 172.72678576 -0.45822477 166.4208169 -0.43388367 160.11482239 C-0.39533336 149.55352967 -0.3668993 138.99224822 -0.34643555 128.4309082 C-0.3253521 117.56434442 -0.29801365 106.69782529 -0.26245117 95.83129883 C-0.26025235 95.15876803 -0.25805352 94.48623722 -0.25578807 93.7933267 C-0.24471659 90.41862551 -0.23352412 87.04392473 -0.22227156 83.66922414 C-0.12943233 55.77952198 -0.05789517 27.88979496 0 0 Z " fill="#EEF6F9" transform="translate(442,57)"/>
<path d="M0 0 C12.07192733 8.61097697 20.6122963 20.81378167 24.2265625 35.22265625 C26.85156547 51.31937257 24.70848058 67.10967032 15.84765625 81.03125 C4.92469998 95.54586799 -9.22416232 104.212226 -27.15234375 107.03125 C-42.34988689 108.45816864 -56.74686716 104.3619891 -68.80859375 94.9609375 C-80.60473786 84.76366834 -88.7679726 72.64142985 -91.15234375 57.03125 C-92.46878452 37.49033234 -88.04904227 22.97107949 -75.46484375 8.02734375 C-70.75311364 2.96449914 -65.17726956 -0.63564387 -59.15234375 -3.96875 C-58.24355469 -4.48050781 -57.33476563 -4.99226563 -56.3984375 -5.51953125 C-38.64606646 -13.91113141 -16.13411785 -10.03333811 0 0 Z " fill="#FDFDFE" transform="translate(127.15234375,353.96875)"/>
<path d="M0 0 C1.1034375 -0.01611328 2.206875 -0.03222656 3.34375 -0.04882812 C21.53651986 -0.05950463 37.44506598 6.60349757 51.25 18.3125 C51.97832031 18.92738281 52.70664063 19.54226563 53.45703125 20.17578125 C62.67958299 28.6707155 72.63176141 43.36900851 73.9375 56.0625 C73.96199219 56.71734375 73.98648438 57.3721875 74.01171875 58.046875 C74.19892061 60.51876964 74.19892061 60.51876964 75.25390625 63.59765625 C79.99532387 81.28035489 73.82595889 98.88598775 65.62109375 114.390625 C54.9524523 132.38592383 38.15489158 142.42532919 18.65234375 148.41796875 C0.11492194 152.88712617 -20.51173029 149.55055016 -36.8203125 140.16015625 C-48.66060221 132.6928802 -57.80232155 123.48003111 -64.75 111.3125 C-65.13929687 110.64605469 -65.52859375 109.97960937 -65.9296875 109.29296875 C-71.49432305 99.0480002 -73.95209367 87.56790456 -73.875 76 C-73.87016602 75.24307861 -73.86533203 74.48615723 -73.86035156 73.70629883 C-73.65096381 54.24789529 -66.70760743 37.96136141 -53.75 23.3125 C-53.23179688 22.70019531 -52.71359375 22.08789062 -52.1796875 21.45703125 C-38.86917433 6.84222157 -19.2750413 -0.05551567 0 0 Z M-24.75 22.3125 C-25.70777344 22.83199219 -26.66554688 23.35148437 -27.65234375 23.88671875 C-40.62485436 31.52074763 -51.16556636 43.59504379 -55.296875 58.29296875 C-58.83952386 74.08218823 -57.25495649 89.97145593 -49.671875 104.29296875 C-40.407026 118.84932704 -26.42199044 128.5783781 -9.75 132.76953125 C4.29933511 135.31231456 19.47892583 132.38947075 31.7265625 125.0703125 C45.17529307 115.70200173 55.13238254 102.91382978 58.7421875 86.7734375 C61.10862059 70.64528581 59.17950059 54.70629302 49.25 41.3125 C39.5416189 29.16786478 27.91821907 20.01050297 12.25 17.3125 C-0.58637323 16.17681723 -13.2827003 15.8692804 -24.75 22.3125 Z " fill="#02C3E8" transform="translate(92.75,327.6875)"/>
<path d="M0 0 C1.5272747 -0.01913956 1.5272747 -0.01913956 3.08540344 -0.03866577 C4.72765144 -0.04200424 4.72765144 -0.04200424 6.40307617 -0.04541016 C7.535009 -0.05206696 8.66694183 -0.05872375 9.83317566 -0.06558228 C12.22795996 -0.07570603 14.62277245 -0.08039938 17.01757812 -0.08007812 C20.6719445 -0.08444386 24.32509593 -0.12074795 27.97924805 -0.15869141 C30.30801997 -0.16456114 32.63679761 -0.16852948 34.96557617 -0.17041016 C36.59871513 -0.19196671 36.59871513 -0.19196671 38.2648468 -0.21395874 C44.68728375 -0.17550273 48.69202377 0.39941689 53.88354492 4.29052734 C55.88354492 7.29052734 55.88354492 7.29052734 55.88354492 10.29052734 C56.87354492 9.63052734 57.86354492 8.97052734 58.88354492 8.29052734 C59.87354492 8.29052734 60.86354492 8.29052734 61.88354492 8.29052734 C61.46596131 10.71251227 61.23380253 11.97879811 59.3636322 13.64324951 C57.42650922 15.79918976 57.5112313 16.96657768 57.51464844 19.83447266 C57.50776505 20.75262756 57.50088165 21.67078247 57.49378967 22.61676025 C57.50302711 24.10269684 57.50302711 24.10269684 57.51245117 25.61865234 C57.49506243 27.71891434 57.47747812 29.81917472 57.4597168 31.91943359 C57.44965945 35.22854665 57.44604338 38.53755201 57.44775391 41.84667969 C57.44417351 45.04182931 57.41678368 48.23615062 57.38745117 51.43115234 C57.3956337 52.41367981 57.40381622 53.39620728 57.4122467 54.4085083 C57.34602197 60.55062774 56.70485375 64.38441109 52.88354492 69.29052734 C47.58877383 73.31144969 41.50220537 72.74131058 35.13354492 72.72412109 C34.00207031 72.72936295 32.8705957 72.7346048 31.70483398 72.74000549 C29.31779805 72.74641551 26.93073048 72.74510197 24.54370117 72.73657227 C20.89599322 72.72805641 17.24984856 72.75684995 13.60229492 72.78857422 C11.27937872 72.79018624 8.95645976 72.78960868 6.63354492 72.78662109 C5.54589844 72.79785507 4.45825195 72.80908905 3.33764648 72.82066345 C-2.63898117 72.76576415 -6.48645068 72.47863542 -11.11645508 68.29052734 C-13.99434467 65.11567794 -14.49936179 63.04620961 -14.53637695 58.79101562 C-14.55228882 57.68952179 -14.56820068 56.58802795 -14.58459473 55.45315552 C-14.58479614 54.26769135 -14.58499756 53.08222717 -14.58520508 51.86083984 C-14.5928186 50.63775116 -14.60043213 49.41466248 -14.60827637 48.1545105 C-14.61908226 45.56722047 -14.62192851 42.97988681 -14.61743164 40.39257812 C-14.61646041 36.43724603 -14.65805896 32.48386004 -14.70239258 28.52880859 C-14.70760032 26.01448972 -14.71028776 23.50016411 -14.71020508 20.98583984 C-14.72660034 19.80442413 -14.74299561 18.62300842 -14.7598877 17.40579224 C-14.68297093 8.24895091 -14.68297093 8.24895091 -11.8293457 4.62207031 C-7.85688882 1.20801675 -5.24077559 0.04470185 0 0 Z " fill="#01FBBF" transform="translate(165.116455078125,142.70947265625)"/>
<path d="M0 0 C1.04150711 -0.00953201 2.08301422 -0.01906403 3.15608215 -0.02888489 C4.28108627 -0.02797348 5.40609039 -0.02706207 6.56518555 -0.02612305 C7.72310104 -0.03040817 8.88101654 -0.0346933 10.07402039 -0.03910828 C12.52606553 -0.04485585 14.97812773 -0.04534872 17.43017578 -0.04101562 C21.17664863 -0.03786305 24.92232643 -0.06128497 28.66870117 -0.08666992 C31.05086163 -0.08894364 33.43302422 -0.08964608 35.81518555 -0.08862305 C36.93411697 -0.09783279 38.0530484 -0.10704254 39.20588684 -0.11653137 C44.79894575 -0.08338275 49.1435751 -0.04911631 53.8894043 3.2746582 C56.2644043 6.4621582 56.2644043 6.4621582 57.8894043 9.2746582 C60.3644043 8.7796582 60.3644043 8.7796582 62.8894043 8.2746582 C62.47185179 10.69646276 62.24017617 11.96270017 60.36949158 13.62638855 C58.42978207 15.78650733 58.51709753 16.96163625 58.52050781 19.83447266 C58.51362442 20.75585526 58.50674103 21.67723785 58.49964905 22.62654114 C58.50888649 24.1171833 58.50888649 24.1171833 58.51831055 25.63793945 C58.50092441 27.74275876 58.48334006 29.84757643 58.46557617 31.95239258 C58.45551052 35.27037606 58.45190486 38.5882519 58.45361328 41.90625 C58.4500382 45.10880603 58.42267057 48.31053142 58.39331055 51.51293945 C58.40149307 52.5006282 58.4096756 53.48831696 58.41810608 54.50593567 C58.35627739 60.24080277 57.90888773 63.84303037 53.8894043 68.2746582 C50.2720548 70.84253718 47.785822 71.65534142 43.36816406 71.69458008 C41.74606773 71.71844788 41.74606773 71.71844788 40.09120178 71.74279785 C38.35355812 71.74309998 38.35355812 71.74309998 36.58081055 71.7434082 C34.78159401 71.75482849 34.78159401 71.75482849 32.94602966 71.76647949 C30.41179484 71.77727509 27.87751554 71.78013582 25.34326172 71.77563477 C21.4692151 71.77466255 17.59714938 71.81629321 13.72338867 71.8605957 C11.25920009 71.86580284 8.79500463 71.86849089 6.33081055 71.8684082 C5.17440567 71.88480347 4.01800079 71.90119873 2.82655334 71.91809082 C-6.13642226 71.84118863 -6.13642226 71.84118863 -9.82568359 68.92504883 C-13.01604477 65.22437986 -13.24103918 62.59642696 -13.3034668 57.87280273 C-13.31952972 56.76800568 -13.33559265 55.66320862 -13.35214233 54.52493286 C-13.39659665 49.48236729 -13.43763881 44.43993236 -13.46069336 39.3972168 C-13.47727317 36.73566964 -13.50458926 34.07416738 -13.54272461 31.4128418 C-13.59739999 27.5774829 -13.61935247 23.74316646 -13.6340332 19.9074707 C-13.65670258 18.71775665 -13.67937195 17.5280426 -13.70272827 16.30227661 C-13.68154811 8.04508138 -13.68154811 8.04508138 -10.76538086 4.11010742 C-6.80297323 1.37060213 -4.81733329 0.0242101 0 0 Z " fill="#FE4B3A" transform="translate(164.110595703125,247.725341796875)"/>
<path d="M0 0 C51.15 0 102.3 0 155 0 C155 8.91 155 17.82 155 27 C103.85 27 52.7 27 0 27 C0 18.09 0 9.18 0 0 Z " fill="#E58843" transform="translate(271,451)"/>
<path d="M0 0 C1.84935301 3.69870602 2.39085939 5.7310683 2.859375 9.72265625 C4.40383151 22.56586905 6.14172831 35.32982305 8.40493011 48.06757736 C11.72855002 66.82502345 14.59564361 85.6439379 17.39459229 104.48553467 C17.99613524 108.52980825 18.60171159 112.57347776 19.20703125 116.6171875 C19.88938269 121.17622906 20.57147062 125.73530644 21.25018311 130.29489136 C21.35182392 130.97718874 21.45346474 131.65948612 21.55818558 132.36245918 C21.85133977 134.33101832 22.14411933 136.29963324 22.43688965 138.26824951 C23.13461433 142.89209352 23.86651417 147.51027444 24.60992432 152.12698364 C26.23985828 164.13190254 26.23985828 164.13190254 23.54296875 168.1953125 C19.88574744 170.79075988 16.31782416 171.19668 11.9375 171.8125 C10.71450195 172.01262695 10.71450195 172.01262695 9.46679688 172.21679688 C3.4321701 173.1440567 3.4321701 173.1440567 0 172 C0 115.24 0 58.48 0 0 Z " fill="#EBF4F9" transform="translate(460,280)"/>
<path d="M0 0 C0 57.42 0 114.84 0 174 C-1.83364084 170.33271832 -2.4005784 168.27511183 -2.89453125 164.3203125 C-3.11701538 162.60835693 -3.11701538 162.60835693 -3.34399414 160.86181641 C-3.49860107 159.62866699 -3.65320801 158.39551758 -3.8125 157.125 C-4.15784032 154.48902908 -4.50556949 151.85357844 -4.859375 149.21875 C-4.95025894 148.54115631 -5.04114288 147.86356262 -5.13478088 147.16543579 C-6.27240231 138.81687092 -7.70228731 130.51695559 -9.16137695 122.21923828 C-10.39106255 115.10053922 -11.40003278 107.98725296 -12.296875 100.8203125 C-13.56305934 90.78839918 -15.09544843 80.81025697 -16.69921875 70.828125 C-16.81970644 70.07590542 -16.94019413 69.32368584 -17.06433296 68.54867172 C-18.18981615 61.52234459 -19.32095664 54.49694886 -20.46508789 47.47363281 C-21.0983651 43.58384966 -21.72317096 39.69278142 -22.34281349 35.80080414 C-22.57684949 34.3412664 -22.81399382 32.88222302 -23.05454063 31.4237442 C-26.62172117 9.78187554 -26.62172117 9.78187554 -23.4765625 4.38671875 C-20.19666508 2.55018313 -17.05527222 2.12623968 -13.375 1.8125 C-8.78332419 1.34724497 -4.51311289 0 0 0 Z " fill="#EBF4F9" transform="translate(111,81)"/>
<path d="M0 0 C9.82185904 7.14006448 15.08822673 19.27686204 17 31 C18.50116679 47.14387319 16.00807228 63.25013069 5.515625 76.17578125 C-6.24274725 89.85794328 -20.41413082 97.63051228 -38.453125 99.32421875 C-54.49645924 99.84580697 -68.91426042 94.17357051 -80.63671875 83.3203125 C-81.31154297 82.66675781 -81.31154297 82.66675781 -82 82 C-78.94592871 82 -76.88970626 82.73107342 -74.06054688 83.77856445 C-63.66814307 87.53095366 -53.93904499 87.50436171 -43 87 C-43 85.35 -43 83.7 -43 82 C-41.68 82 -40.36 82 -39 82 C-39 83.32 -39 84.64 -39 86 C-23.84770518 80.74790423 -23.84770518 80.74790423 -13.0859375 69.98046875 C-12 68 -12 68 -9.59765625 66.5625 C-1.88129982 61.9210826 1.44903611 51.19160454 4 43 C2.02 42.505 2.02 42.505 0 42 C0.33 40.68 0.66 39.36 1 38 C2.65 38 4.3 38 6 38 C5.48020136 24.67674018 4.57435764 12.6252271 0 0 Z " fill="#D1F1FC" transform="translate(135,362)"/>
<path d="M0 0 C7.59869571 -0.12679156 15.19711858 -0.21434844 22.79663086 -0.2746582 C25.3816955 -0.29980001 27.96668907 -0.33391815 30.55151367 -0.37719727 C34.26759374 -0.43785922 37.98273386 -0.46621419 41.69921875 -0.48828125 C43.43228523 -0.52699089 43.43228523 -0.52699089 45.20036316 -0.56648254 C53.16104787 -0.56926433 53.16104787 -0.56926433 57.26879883 2.21801758 C59.19124721 5.30732787 59.41353877 6.45445484 59 10 C57.74719238 11.8540802 57.74719238 11.8540802 55.97070312 13.59692383 C55.31001831 14.25723099 54.6493335 14.91753815 53.96862793 15.59785461 C53.24679321 16.2938829 52.5249585 16.98991119 51.78125 17.70703125 C50.68254578 18.79512337 50.68254578 18.79512337 49.56164551 19.90519714 C47.21923133 22.21962073 44.86003556 24.51606108 42.5 26.8125 C40.90901993 28.37840361 39.31916152 29.94544773 37.73046875 31.51367188 C33.83323183 35.35577732 29.9220725 39.1832594 26 43 C25.51834381 42.5849118 25.03668762 42.16982361 24.54043579 41.74215698 C23.90914764 41.19931061 23.2778595 40.65646423 22.62744141 40.09716797 C22.00141022 39.55832977 21.37537903 39.01949158 20.7303772 38.46432495 C19.50153366 37.4244209 18.24108584 36.4213643 16.9609375 35.4453125 C11.96230353 31.28388816 10.58230583 26.26886275 8.92456055 20.20898438 C7.23871885 14.22414217 4.71388978 9.51384883 1.35546875 4.2578125 C0 2 0 2 0 0 Z " fill="#FDE73E" transform="translate(159,357)"/>
<path d="M0 0 C0.96421875 -0.01611328 1.9284375 -0.03222656 2.921875 -0.04882812 C18.52469713 -0.05928578 32.35229308 6.40158375 43.60546875 17.1328125 C56.96438541 31.55114034 62.24474519 47.22285549 61.86328125 66.47265625 C61.28864498 81.28581676 53.78190386 96.33720785 43.4453125 106.84765625 C29.22330954 119.27713529 12.60736501 125.41685274 -6.375 124.3125 C-24.03291878 122.14258664 -39.17484548 113.49350797 -50.1875 99.5625 C-60.97900183 84.40024654 -63.79616289 69.49983213 -62.375 51.3125 C-59.30556465 34.02948616 -48.70495069 19.60393623 -34.68359375 9.51171875 C-23.69144399 2.20524848 -13.0233422 -0.04318084 0 0 Z M-26.375 9.3125 C-27.33277344 9.83199219 -28.29054688 10.35148437 -29.27734375 10.88671875 C-42.24985436 18.52074763 -52.79056636 30.59504379 -56.921875 45.29296875 C-60.46452386 61.08218823 -58.87995649 76.97145593 -51.296875 91.29296875 C-42.032026 105.84932704 -28.04699044 115.5783781 -11.375 119.76953125 C2.67433511 122.31231456 17.85392583 119.38947075 30.1015625 112.0703125 C43.55029307 102.70200173 53.50738254 89.91382978 57.1171875 73.7734375 C59.48362059 57.64528581 57.55450059 41.70629302 47.625 28.3125 C37.9166189 16.16786478 26.29321907 7.01050297 10.625 4.3125 C-2.21137323 3.17681723 -14.9077003 2.8692804 -26.375 9.3125 Z " fill="#415887" transform="translate(94.375,340.6875)"/>
<path d="M0 0 C0.07425639 5.88986463 0.12865268 11.77945566 0.16479492 17.66967773 C0.17986465 19.67265572 0.2003241 21.6756008 0.22631836 23.6784668 C0.26278127 26.56046681 0.27974461 29.44202984 0.29296875 32.32421875 C0.30845261 33.21711105 0.32393646 34.11000336 0.33988953 35.029953 C0.34118487 39.83473067 0.18191753 43.12280859 -3 47 C-5.28631494 48.14315747 -6.54347406 48.12112732 -9.08251953 48.11352539 C-10.34360031 48.11341209 -10.34360031 48.11341209 -11.63015747 48.11329651 C-12.99272171 48.10555458 -12.99272171 48.10555458 -14.3828125 48.09765625 C-15.31221649 48.0962413 -16.24162048 48.09482635 -17.19918823 48.09336853 C-20.17449124 48.08776053 -23.14971964 48.07520668 -26.125 48.0625 C-28.13932183 48.05748603 -30.15364484 48.05292295 -32.16796875 48.04882812 C-37.1120312 48.03863838 -42.05593185 48.01906453 -47 48 C-46.34 39.75 -45.68 31.5 -45 23 C-38 29 -38 29 -35 32 C-32.09506988 30.68718439 -30.04209202 29.28525077 -27.80786133 27.01904297 C-27.21076859 26.41857147 -26.61367584 25.81809998 -25.99848938 25.19943237 C-25.3660582 24.55354156 -24.73362701 23.90765076 -24.08203125 23.2421875 C-23.42418137 22.57913605 -22.76633148 21.91608459 -22.08854675 21.23294067 C-19.99172228 19.11832341 -17.90171904 16.99712958 -15.8125 14.875 C-13.71169632 12.74662671 -11.60946922 10.61970971 -9.50431824 8.49563599 C-8.19502303 7.17403043 -6.88840924 5.8497623 -5.58467102 4.52267456 C-1.11170839 0 -1.11170839 0 0 0 Z " fill="#FBE63E" transform="translate(218,372)"/>
<path d="M0 0 C1.22589844 -0.03738281 2.45179688 -0.07476562 3.71484375 -0.11328125 C7.0625 0.3125 7.0625 0.3125 9.45703125 2.1953125 C13.18500573 7.11152215 12.0625 12.12548754 12.0625 18.3125 C-29.8475 18.3125 -71.7575 18.3125 -114.9375 18.3125 C-114.9375 17.9825 -114.9375 17.6525 -114.9375 17.3125 C-114.09606445 17.19245605 -113.25462891 17.07241211 -112.38769531 16.94873047 C-95.14766708 14.47823303 -77.94659574 11.85843104 -60.77749634 8.93392944 C-47.48838005 6.67571369 -34.16880318 4.70610922 -20.81469727 2.87304688 C-20.10503815 2.77478104 -19.39537903 2.6765152 -18.66421509 2.57527161 C-16.74974068 2.3107442 -14.83472694 2.05012844 -12.91967773 1.78979492 C-1.98404114 0.03955591 -1.98404114 0.03955591 0 0 Z " fill="#F0F9FD" transform="translate(412.9375,34.6875)"/>
<path d="M0 0 C1.04150711 -0.00953201 2.08301422 -0.01906403 3.15608215 -0.02888489 C4.28108627 -0.02797348 5.40609039 -0.02706207 6.56518555 -0.02612305 C7.72310104 -0.03040817 8.88101654 -0.0346933 10.07402039 -0.03910828 C12.52606553 -0.04485585 14.97812773 -0.04534872 17.43017578 -0.04101562 C21.17664863 -0.03786305 24.92232643 -0.06128497 28.66870117 -0.08666992 C31.05086163 -0.08894364 33.43302422 -0.08964608 35.81518555 -0.08862305 C36.93411697 -0.09783279 38.0530484 -0.10704254 39.20588684 -0.11653137 C44.79894575 -0.08338275 49.1435751 -0.04911631 53.8894043 3.2746582 C56.2644043 6.4621582 56.2644043 6.4621582 57.8894043 9.2746582 C60.3644043 8.7796582 60.3644043 8.7796582 62.8894043 8.2746582 C62.47185179 10.69646276 62.24017617 11.96270017 60.36949158 13.62638855 C58.42978207 15.78650733 58.51709753 16.96163625 58.52050781 19.83447266 C58.51362442 20.75585526 58.50674103 21.67723785 58.49964905 22.62654114 C58.50888649 24.1171833 58.50888649 24.1171833 58.51831055 25.63793945 C58.50092441 27.74275876 58.48334006 29.84757643 58.46557617 31.95239258 C58.45551052 35.27037606 58.45190486 38.5882519 58.45361328 41.90625 C58.4500382 45.10880603 58.42267057 48.31053142 58.39331055 51.51293945 C58.40149307 52.5006282 58.4096756 53.48831696 58.41810608 54.50593567 C58.35627739 60.24080277 57.90888773 63.84303037 53.8894043 68.2746582 C50.2720548 70.84253718 47.785822 71.65534142 43.36816406 71.69458008 C41.74606773 71.71844788 41.74606773 71.71844788 40.09120178 71.74279785 C38.35355812 71.74309998 38.35355812 71.74309998 36.58081055 71.7434082 C34.78159401 71.75482849 34.78159401 71.75482849 32.94602966 71.76647949 C30.41179484 71.77727509 27.87751554 71.78013582 25.34326172 71.77563477 C21.4692151 71.77466255 17.59714938 71.81629321 13.72338867 71.8605957 C11.25920009 71.86580284 8.79500463 71.86849089 6.33081055 71.8684082 C5.17440567 71.88480347 4.01800079 71.90119873 2.82655334 71.91809082 C-6.13642226 71.84118863 -6.13642226 71.84118863 -9.82568359 68.92504883 C-13.01604477 65.22437986 -13.24103918 62.59642696 -13.3034668 57.87280273 C-13.31952972 56.76800568 -13.33559265 55.66320862 -13.35214233 54.52493286 C-13.39659665 49.48236729 -13.43763881 44.43993236 -13.46069336 39.3972168 C-13.47727317 36.73566964 -13.50458926 34.07416738 -13.54272461 31.4128418 C-13.59739999 27.5774829 -13.61935247 23.74316646 -13.6340332 19.9074707 C-13.65670258 18.71775665 -13.67937195 17.5280426 -13.70272827 16.30227661 C-13.68154811 8.04508138 -13.68154811 8.04508138 -10.76538086 4.11010742 C-6.80297323 1.37060213 -4.81733329 0.0242101 0 0 Z M-8.32421875 6.59057617 C-11.25248671 11.18600848 -10.7849971 16.58289528 -10.7043457 21.84106445 C-10.70438599 22.95271469 -10.70442627 24.06436493 -10.70446777 25.20970154 C-10.69911833 27.55392121 -10.68156052 29.89814077 -10.65258789 32.2421875 C-10.61069756 35.82843855 -10.61152488 39.41281284 -10.6184082 42.99926758 C-10.60791651 45.27987957 -10.59497852 47.5604819 -10.5793457 49.84106445 C-10.57914429 50.91199844 -10.57894287 51.98293243 -10.57873535 53.08631897 C-10.55588619 60.20592734 -10.55588619 60.20592734 -7.1105957 66.2746582 C-4.59529477 67.53230867 -2.82127339 67.42900186 -0.00585938 67.4675293 C1.05897171 67.48359222 2.1238028 67.49965515 3.22090149 67.51620483 C8.09289976 67.56059014 12.96476099 67.60171673 17.83691406 67.62475586 C20.40829514 67.64132341 22.97963002 67.66862349 25.55078125 67.70678711 C29.25374297 67.76148374 32.95562455 67.78341979 36.65893555 67.7980957 C37.80803909 67.82076508 38.95714264 67.84343445 40.1410675 67.86679077 C44.91317854 67.85413058 47.97330216 67.82081995 52.12329102 65.34667969 C54.61217367 61.01745514 54.51960958 57.50939329 54.37768555 52.59887695 C54.37061081 51.6737178 54.36353607 50.74855865 54.35624695 49.79536438 C54.32833245 46.85012818 54.26559987 43.90681648 54.2019043 40.9621582 C54.1768176 38.96153468 54.15400508 36.96088126 54.13354492 34.96020508 C54.07851538 30.06428504 53.99226331 25.16979753 53.8894043 20.2746582 C49.3021921 24.09207615 45.00881345 28.0605008 40.87768555 32.36450195 C39.77996859 33.48942727 38.68164417 34.61376009 37.58276367 35.73754883 C35.87832338 37.48550885 34.17813479 39.23692982 32.48779297 40.99853516 C30.83736255 42.71525743 29.1717094 44.41587781 27.50268555 46.11450195 C26.74632561 46.91427711 26.74632561 46.91427711 25.97468567 47.73020935 C22.46467704 51.26671336 22.46467704 51.26671336 19.76806641 51.30395508 C17.55523505 50.0915708 15.99934225 48.75662105 14.2175293 46.96606445 C13.55366211 46.30155273 12.88979492 45.63704102 12.20581055 44.95239258 C11.18293945 43.90535156 11.18293945 43.90535156 10.1394043 42.8371582 C9.44202148 42.14299805 8.74463867 41.44883789 8.02612305 40.73364258 C2.8894043 35.54163625 2.8894043 35.54163625 2.8894043 33.2746582 C7.21445265 34.93329325 9.98359255 38.1456992 13.1394043 41.3996582 C13.69370117 41.96297852 14.24799805 42.52629883 14.8190918 43.10668945 C16.18044914 44.49151848 17.53555289 45.88249024 18.8894043 47.2746582 C21.80419323 45.95371006 23.90776347 44.51789519 26.18920898 42.28125 C26.80955017 41.67689621 27.42989136 41.07254242 28.06903076 40.44987488 C29.05519379 39.47175591 29.05519379 39.47175591 30.0612793 38.47387695 C30.7436969 37.80048782 31.4261145 37.12709869 32.12921143 36.43330383 C33.56745663 35.00954652 35.00292324 33.58297761 36.43579102 32.15380859 C38.6332399 29.96828913 40.8486444 27.80211801 43.06518555 25.63598633 C44.46086291 24.24976952 45.85543271 22.86243651 47.2487793 21.47387695 C47.91431824 20.82787033 48.57985718 20.18186371 49.26556396 19.51628113 C52.8150427 16.03423893 52.8150427 16.03423893 54.42163086 11.46533203 C53.69164651 8.46067626 52.243966 7.21370902 49.8894043 5.2746582 C47.39970508 4.0298086 45.66245539 4.11389117 42.87646484 4.06591797 C41.83165451 4.04662735 40.78684418 4.02733673 39.71037292 4.00746155 C34.92999621 3.94983799 30.14977171 3.9004516 25.36914062 3.86962891 C22.84621512 3.84802657 20.323365 3.81389799 17.80078125 3.76708984 C14.16722065 3.70025535 10.53521075 3.67265592 6.90112305 3.65356445 C5.2102784 3.61181847 5.2102784 3.61181847 3.48527527 3.56922913 C-1.48714381 3.582315 -4.21974638 3.63266195 -8.32421875 6.59057617 Z " fill="#454F7D" transform="translate(164.110595703125,247.725341796875)"/>
<path d="M0 0 C1.5272747 -0.01913956 1.5272747 -0.01913956 3.08540344 -0.03866577 C4.72765144 -0.04200424 4.72765144 -0.04200424 6.40307617 -0.04541016 C7.535009 -0.05206696 8.66694183 -0.05872375 9.83317566 -0.06558228 C12.22795996 -0.07570603 14.62277245 -0.08039938 17.01757812 -0.08007812 C20.6719445 -0.08444386 24.32509593 -0.12074795 27.97924805 -0.15869141 C30.30801997 -0.16456114 32.63679761 -0.16852948 34.96557617 -0.17041016 C36.59871513 -0.19196671 36.59871513 -0.19196671 38.2648468 -0.21395874 C44.68728375 -0.17550273 48.69202377 0.39941689 53.88354492 4.29052734 C55.88354492 7.29052734 55.88354492 7.29052734 55.88354492 10.29052734 C56.87354492 9.63052734 57.86354492 8.97052734 58.88354492 8.29052734 C59.87354492 8.29052734 60.86354492 8.29052734 61.88354492 8.29052734 C61.46596131 10.71251227 61.23380253 11.97879811 59.3636322 13.64324951 C57.42650922 15.79918976 57.5112313 16.96657768 57.51464844 19.83447266 C57.50776505 20.75262756 57.50088165 21.67078247 57.49378967 22.61676025 C57.50302711 24.10269684 57.50302711 24.10269684 57.51245117 25.61865234 C57.49506243 27.71891434 57.47747812 29.81917472 57.4597168 31.91943359 C57.44965945 35.22854665 57.44604338 38.53755201 57.44775391 41.84667969 C57.44417351 45.04182931 57.41678368 48.23615062 57.38745117 51.43115234 C57.3956337 52.41367981 57.40381622 53.39620728 57.4122467 54.4085083 C57.34602197 60.55062774 56.70485375 64.38441109 52.88354492 69.29052734 C47.58877383 73.31144969 41.50220537 72.74131058 35.13354492 72.72412109 C34.00207031 72.72936295 32.8705957 72.7346048 31.70483398 72.74000549 C29.31779805 72.74641551 26.93073048 72.74510197 24.54370117 72.73657227 C20.89599322 72.72805641 17.24984856 72.75684995 13.60229492 72.78857422 C11.27937872 72.79018624 8.95645976 72.78960868 6.63354492 72.78662109 C5.54589844 72.79785507 4.45825195 72.80908905 3.33764648 72.82066345 C-2.63898117 72.76576415 -6.48645068 72.47863542 -11.11645508 68.29052734 C-13.99434467 65.11567794 -14.49936179 63.04620961 -14.53637695 58.79101562 C-14.55228882 57.68952179 -14.56820068 56.58802795 -14.58459473 55.45315552 C-14.58479614 54.26769135 -14.58499756 53.08222717 -14.58520508 51.86083984 C-14.5928186 50.63775116 -14.60043213 49.41466248 -14.60827637 48.1545105 C-14.61908226 45.56722047 -14.62192851 42.97988681 -14.61743164 40.39257812 C-14.61646041 36.43724603 -14.65805896 32.48386004 -14.70239258 28.52880859 C-14.70760032 26.01448972 -14.71028776 23.50016411 -14.71020508 20.98583984 C-14.72660034 19.80442413 -14.74299561 18.62300842 -14.7598877 17.40579224 C-14.68297093 8.24895091 -14.68297093 8.24895091 -11.8293457 4.62207031 C-7.85688882 1.20801675 -5.24077559 0.04470185 0 0 Z M-10.11645508 8.29052734 C-11.35326204 10.76414127 -11.26333274 12.44456511 -11.29345703 15.21166992 C-11.30629227 16.2364595 -11.3191275 17.26124908 -11.33235168 18.3170929 C-11.33973862 19.42852158 -11.34712555 20.53995026 -11.35473633 21.68505859 C-11.36280807 22.82456467 -11.37087982 23.96407074 -11.37919617 25.1381073 C-11.39304495 27.55323765 -11.40376353 29.96838765 -11.41162109 32.38354492 C-11.42883623 36.07752559 -11.47271702 39.77061206 -11.5168457 43.46435547 C-11.52697214 45.80874992 -11.53548839 48.15315199 -11.54223633 50.49755859 C-11.56849846 52.15559258 -11.56849846 52.15559258 -11.59529114 53.84712219 C-11.61228014 59.957446 -11.61228014 59.957446 -9.21484375 65.46508789 C-6.05829217 68.21104905 -4.29775818 68.42286772 -0.1953125 68.4675293 C0.82947708 68.48036453 1.85426666 68.49319977 2.91011047 68.50642395 C4.57725349 68.51750435 4.57725349 68.51750435 6.27807617 68.52880859 C7.41758224 68.53688034 8.55708832 68.54495209 9.73112488 68.55326843 C12.14625523 68.56711721 14.56140522 68.5778358 16.9765625 68.58569336 C20.67054317 68.6029085 24.36362964 68.64678928 28.05737305 68.69091797 C30.4017675 68.7010444 32.74616956 68.70956066 35.09057617 68.71630859 C36.19593216 68.73381668 37.30128815 68.75132477 38.44013977 68.7693634 C44.55046358 68.7863524 44.55046358 68.7863524 50.05810547 66.38891602 C52.58245877 63.48710826 53.00830264 61.95960364 52.99707031 58.20800781 C52.99699478 57.36728729 52.99691925 56.52656677 52.99684143 55.66036987 C52.99168015 54.75199371 52.98651886 53.84361755 52.98120117 52.90771484 C52.97978622 51.97831085 52.97837128 51.04890686 52.97691345 50.09133911 C52.97130545 47.1160361 52.9587516 44.1408077 52.94604492 41.16552734 C52.94103095 39.15120551 52.93646787 37.1368825 52.93237305 35.12255859 C52.92133342 30.17851933 52.90406341 25.23453599 52.88354492 20.29052734 C48.29633273 24.10794529 44.00295407 28.07636994 39.87182617 32.38037109 C38.77410921 33.50529641 37.6757848 34.62962923 36.5769043 35.75341797 C34.872464 37.50137799 33.17227541 39.25279896 31.48193359 41.0144043 C29.83150317 42.73112658 28.16585003 44.43174695 26.49682617 46.13037109 C25.74046623 46.93014626 25.74046623 46.93014626 24.96882629 47.74607849 C21.45881766 51.2825825 21.45881766 51.2825825 18.76220703 51.31982422 C16.54937568 50.10743994 14.99348287 48.77249019 13.21166992 46.98193359 C12.54780273 46.31742188 11.88393555 45.65291016 11.19995117 44.96826172 C10.17708008 43.9212207 10.17708008 43.9212207 9.13354492 42.85302734 C8.43616211 42.15886719 7.7387793 41.46470703 7.02026367 40.74951172 C1.88354492 35.55750539 1.88354492 35.55750539 1.88354492 33.29052734 C6.83377655 35.1587638 9.98686974 39.39590991 13.46166992 43.21044922 C15.15933045 45.04699473 15.15933045 45.04699473 17.88354492 47.29052734 C21.16578135 47.01025995 22.88062162 45.68664546 25.19921875 43.44238281 C25.82278763 42.84440887 26.44635651 42.24643494 27.08882141 41.63034058 C27.74940048 40.97937408 28.40997955 40.32840759 29.09057617 39.65771484 C29.77536545 38.98765411 30.46015472 38.31759338 31.16569519 37.62722778 C32.60953919 36.20732401 34.04916831 34.78312338 35.48486328 33.35498047 C37.68653434 31.17494447 39.91576147 29.02594834 42.1472168 26.87646484 C43.54680486 25.49286824 44.94465197 24.10750787 46.34057617 22.72021484 C47.0112764 22.08139374 47.68197662 21.44257263 48.3730011 20.78439331 C51.53881174 17.57129497 52.82889103 16.20729064 53.10498047 11.57617188 C51.57870545 7.47051343 50.81941107 6.27301973 46.88354492 4.29052734 C42.98391446 3.71589863 39.13211607 3.73019735 35.19604492 3.75927734 C34.06078369 3.75545044 32.92552246 3.75162354 31.75585938 3.74768066 C29.35863354 3.74496197 26.96137803 3.75232003 24.56420898 3.76904297 C20.8965435 3.79045147 17.23083703 3.76923799 13.56323242 3.74365234 C11.23249893 3.74629563 8.90176667 3.75142061 6.57104492 3.75927734 C5.4751001 3.75118042 4.37915527 3.7430835 3.25 3.73474121 C-4.27741002 3.78806915 -4.27741002 3.78806915 -10.11645508 8.29052734 Z " fill="#425685" transform="translate(165.116455078125,142.70947265625)"/>
<path d="M0 0 C1.1034375 -0.01611328 2.206875 -0.03222656 3.34375 -0.04882812 C13.89750785 -0.05502164 23.29753507 2.1541419 32.9375 6.375 C34.11699219 6.88160156 35.29648438 7.38820313 36.51171875 7.91015625 C39.25 9.3125 39.25 9.3125 40.25 11.3125 C39.21552734 11.02246094 39.21552734 11.02246094 38.16015625 10.7265625 C37.22042969 10.46617187 36.28070313 10.20578125 35.3125 9.9375 C34.39597656 9.68226563 33.47945313 9.42703125 32.53515625 9.1640625 C31.45105469 8.88304687 30.36695312 8.60203125 29.25 8.3125 C28.60796631 8.13678467 27.96593262 7.96106934 27.30444336 7.7800293 C6.8657142 2.6256322 -13.72554714 6.09000478 -31.7890625 16.4375 C-47.13017365 26.1521878 -60.29792209 41.2509063 -65.265625 59.07421875 C-68.93514654 76.03095941 -69.44475097 92.57317842 -63 108.9375 C-61.75 112.3125 -61.75 112.3125 -62.75 115.3125 C-69.55369776 102.72565914 -73.97102809 90.40901434 -73.875 76 C-73.87016602 75.24307861 -73.86533203 74.48615723 -73.86035156 73.70629883 C-73.65096381 54.24789529 -66.70760743 37.96136141 -53.75 23.3125 C-53.23179688 22.70019531 -52.71359375 22.08789062 -52.1796875 21.45703125 C-38.86917433 6.84222157 -19.2750413 -0.05551567 0 0 Z " fill="#7BDDF1" transform="translate(92.75,327.6875)"/>
<path d="M0 0 C4.64061703 2.60980697 8.20539841 5.88264794 9.72265625 11.1171875 C10.46107407 16.83992563 10.55458593 21.48201538 7.91015625 26.6796875 C6.82734375 27.88625 6.82734375 27.88625 5.72265625 29.1171875 C4.91828125 30.0453125 4.91828125 30.0453125 4.09765625 30.9921875 C2.72265625 32.1171875 2.72265625 32.1171875 0.72265625 32.1171875 C1.74359375 33.509375 1.74359375 33.509375 2.78515625 34.9296875 C3.42453125 35.9815625 4.06390625 37.0334375 4.72265625 38.1171875 C4.39265625 39.1071875 4.06265625 40.0971875 3.72265625 41.1171875 C1.1983624 40.03534728 -0.20271054 39.20840587 -1.96484375 37.0546875 C-4.56618219 34.87518772 -5.38341828 34.84168657 -8.65234375 34.6171875 C-14.0010558 34.20507362 -17.13185649 32.5237658 -20.75390625 28.4609375 C-24.19744421 23.76695279 -25.05449315 19.58204471 -24.7578125 13.80078125 C-23.84532695 8.70421561 -21.566126 5.16779698 -17.73828125 1.73828125 C-12.41586613 -1.88146553 -5.96150158 -2.3109766 0 0 Z " fill="#F9F9FB" transform="translate(259.27734375,85.8828125)"/>
<path d="M0 0 C0.99 0.33 1.98 0.66 3 1 C6.89757643 21.14267498 2.02410893 39.48267772 -8.25 56.8125 C-19.4336523 73.35240263 -36.38379697 83.95540691 -55.65234375 88.60083008 C-60.5882151 89.44007193 -65.56815096 89.38186633 -70.5625 89.375 C-71.71331055 89.37411377 -72.86412109 89.37322754 -74.04980469 89.37231445 C-85.45172534 89.21426644 -94.82134775 87.31788868 -105 82 C-101.4375223 80.81250743 -100.40155757 81.30426246 -96.875 82.375 C-76.1624813 87.80328087 -55.20185398 84.37643307 -36.66015625 73.7265625 C-18.81445608 62.14389073 -7.63973318 45.81963456 -2.2890625 25.26953125 C-0.55758316 16.97599617 -0.37607108 8.44180619 0 0 Z " fill="#01B9DD" transform="translate(165,388)"/>
<path d="M0 0 C58.08 0 116.16 0 176 0 C176 1.32 176 2.64 176 4 C117.92 4 59.84 4 0 4 C0 2.68 0 1.36 0 0 Z " fill="#425483" transform="translate(244,268)"/>
<path d="M0 0 C58.08 0 116.16 0 176 0 C175.67 1.32 175.34 2.64 175 4 C117.58 4 60.16 4 1 4 C0.67 2.68 0.34 1.36 0 0 Z " fill="#4F5F8C" transform="translate(244,373)"/>
<path d="M0 0 C57.42 0 114.84 0 174 0 C174.33 1.32 174.66 2.64 175 4 C116.92 4 58.84 4 -1 4 C-0.67 2.68 -0.34 1.36 0 0 Z " fill="#485A87" transform="translate(245,163)"/>
<path d="M0 0 C5.8171921 4.23254399 10.27726274 9.63665783 12.22265625 16.6171875 C12.81767941 22.55254353 13.12083429 27.72103385 10.53515625 33.1796875 C4.17514244 39.88348584 4.17514244 39.88348584 -0.77734375 40.6171875 C-1.43734375 38.9671875 -2.09734375 37.3171875 -2.77734375 35.6171875 C-1.38515625 35.029375 -1.38515625 35.029375 0.03515625 34.4296875 C3.62095112 32.39070611 4.73059156 31.4302417 6.22265625 27.6171875 C7.04688714 21.63006591 6.3470341 15.8502444 3.22265625 10.6171875 C-1.42977128 5.30356226 -7.13661532 2.01435787 -14.21484375 1.2421875 C-21.70728027 2.03086503 -27.81978061 4.82024859 -32.77734375 10.6171875 C-35.89548328 15.85831564 -36.60240683 21.62402098 -35.77734375 27.6171875 C-34.28527906 31.4302417 -33.17563862 32.39070611 -29.58984375 34.4296875 C-28.66171875 34.8215625 -27.73359375 35.2134375 -26.77734375 35.6171875 C-27.76734375 38.0921875 -27.76734375 38.0921875 -28.77734375 40.6171875 C-34.55578615 39.37894984 -37.64264359 36.45708286 -40.77734375 31.6171875 C-43.01952593 24.98576383 -42.66098319 17.69571165 -39.77734375 11.3671875 C-36.03709666 4.7401018 -30.47548931 -0.63795956 -23.1015625 -2.94140625 C-14.84956649 -4.50859205 -7.36304113 -4.23823831 0 0 Z " fill="#03BEE3" transform="translate(108.77734375,276.3828125)"/>
<path d="M0 0 C46.53 0 93.06 0 141 0 C141.33 1.32 141.66 2.64 142 4 C95.14 4 48.28 4 0 4 C0 2.68 0 1.36 0 0 Z " fill="#455785" transform="translate(244,400)"/>
<path d="M0 0 C46.86 0 93.72 0 142 0 C141.67 1.32 141.34 2.64 141 4 C94.8 4 48.6 4 1 4 C0.67 2.68 0.34 1.36 0 0 Z " fill="#485A87" transform="translate(244,191)"/>
<path d="M0 0 C0.33 0 0.66 0 1 0 C1.00586624 0.57185028 1.01173248 1.14370056 1.01777649 1.73287964 C1.08157484 7.67006947 1.16595811 13.60671038 1.26245117 19.54345703 C1.29576216 21.76083146 1.32377463 23.97829194 1.34643555 26.19580078 C1.37986819 29.37830377 1.43217782 32.56001365 1.48828125 35.7421875 C1.49467117 36.73805878 1.5010611 37.73393005 1.50764465 38.75997925 C1.52743881 39.68078278 1.54723297 40.6015863 1.56762695 41.55029297 C1.57873001 42.3630368 1.58983307 43.17578064 1.60127258 44.01315308 C1.83721874 46.40183169 1.83721874 46.40183169 5 48 C7.44930124 48.31035791 7.44930124 48.31035791 10.21826172 48.2746582 C11.81539505 48.28895622 11.81539505 48.28895622 13.4447937 48.30354309 C15.16981613 48.30217598 15.16981613 48.30217598 16.9296875 48.30078125 C18.11217072 48.30506638 19.29465393 48.3093515 20.51296997 48.31376648 C23.01628987 48.31951386 25.51962647 48.32000706 28.02294922 48.31567383 C31.85282948 48.31251827 35.68193429 48.33595389 39.51171875 48.36132812 C41.94270736 48.3636015 44.37369804 48.36430444 46.8046875 48.36328125 C47.95065399 48.372491 49.09662048 48.38170074 50.27731323 48.39118958 C51.34837311 48.38496078 52.41943298 48.37873199 53.52294922 48.37231445 C54.93167801 48.37325859 54.93167801 48.37325859 56.36886597 48.3742218 C59.49293077 47.92989128 61.41672159 46.76800914 64 45 C64.39321721 49.01081559 64.47372401 51.27334273 62.24047852 54.69897461 C57.31763899 58.19462462 52.73821012 57.69733446 46.83984375 57.62890625 C45.65781876 57.63131821 44.47579376 57.63373016 43.25794983 57.63621521 C40.76234579 57.6352368 38.26672003 57.62184486 35.77124023 57.59692383 C31.94765701 57.5625912 28.12638128 57.57627377 24.30273438 57.59570312 C21.87759431 57.58880553 19.45246022 57.57913394 17.02734375 57.56640625 C15.31006325 57.57384605 15.31006325 57.57384605 13.55809021 57.58143616 C12.49341019 57.56559982 11.42873016 57.54976349 10.33178711 57.53344727 C9.39644638 57.52724869 8.46110565 57.52105011 7.49742126 57.5146637 C4.26204452 56.84792358 3.07575363 55.51076275 1 53 C-0.24177521 50.51644959 -0.12036681 48.86892378 -0.11352539 46.09130859 C-0.11344986 45.07040131 -0.11337433 44.04949402 -0.11329651 42.99765015 C-0.10813522 41.89240997 -0.10297394 40.7871698 -0.09765625 39.6484375 C-0.0962413 38.5192691 -0.09482635 37.39010071 -0.09336853 36.22671509 C-0.08775744 32.60945012 -0.07520303 28.99224636 -0.0625 25.375 C-0.05748643 22.92708423 -0.05292328 20.47916748 -0.04882812 18.03125 C-0.0377844 12.02081234 -0.02103544 6.01041054 0 0 Z " fill="#D24A48" transform="translate(154,258)"/>
<path d="M0 0 C0.33 0 0.66 0 1 0 C1.00364563 0.56962967 1.00729126 1.13925934 1.01104736 1.72615051 C1.05281175 7.6473593 1.12211371 13.56778854 1.20751953 19.48852539 C1.23577019 21.69905811 1.25696425 23.90969262 1.27099609 26.12036133 C1.29236869 29.29561634 1.33899031 32.4696422 1.390625 35.64453125 C1.39185364 36.63524124 1.39308228 37.62595123 1.39434814 38.64668274 C1.41406677 39.56741074 1.4337854 40.48813873 1.45410156 41.43676758 C1.46742523 42.65255241 1.46742523 42.65255241 1.48101807 43.89289856 C1.84571192 46.13838005 1.84571192 46.13838005 3.71334839 47.76094055 C6.40455539 49.21921493 8.08197228 49.38006522 11.13232422 49.38818359 C12.15373505 49.39764008 13.17514587 49.40709656 14.22750854 49.4168396 C15.87446213 49.40773056 15.87446213 49.40773056 17.5546875 49.3984375 C18.688992 49.40130768 19.82329651 49.40417786 20.99197388 49.40713501 C23.39097594 49.40917612 25.78999463 49.40364306 28.18896484 49.39111328 C31.85422199 49.37509083 35.51837139 49.39094597 39.18359375 49.41015625 C41.51562743 49.40817325 43.84766042 49.40432839 46.1796875 49.3984375 C47.27360809 49.40451019 48.36752869 49.41058289 49.49459839 49.4168396 C55.16085885 49.36470172 59.20320151 49.12915747 64 46 C64.35671933 49.83473284 64.29771416 51.55342875 62.125 54.8125 C59.88262569 57.1208265 58.99629078 57.92969721 55.8190155 58.15390015 C54.91476334 58.16676056 54.01051117 58.17962097 53.07885742 58.19287109 C51.54167305 58.21696548 51.54167305 58.21696548 49.97343445 58.24154663 C45.28462335 58.28594443 40.59595448 58.32705908 35.90698242 58.35009766 C33.43260294 58.3666639 30.95827143 58.39396232 28.48413086 58.43212891 C24.92015711 58.48683851 21.35730563 58.50876343 17.79296875 58.5234375 C16.68761276 58.54610687 15.58225677 58.56877625 14.44340515 58.59213257 C5.89286384 58.56857013 5.89286384 58.56857013 2.82543945 55.52978516 C2.22304443 54.69495605 1.62064941 53.86012695 1 53 C0.67 52.67 0.34 52.34 0 52 C-0.09340434 50.37325222 -0.11745171 48.74245949 -0.11352539 47.11303711 C-0.11344986 46.07203354 -0.11337433 45.03102997 -0.11329651 43.95848083 C-0.10813522 42.8262056 -0.10297394 41.69393036 -0.09765625 40.52734375 C-0.0962413 39.37456436 -0.09482635 38.22178497 -0.09336853 37.03407288 C-0.08775005 33.33518936 -0.07519442 29.63636536 -0.0625 25.9375 C-0.05748738 23.43684983 -0.05292406 20.93619871 -0.04882812 18.43554688 C-0.03777462 12.29034412 -0.02101852 6.14517631 0 0 Z " fill="#0DD3B0" transform="translate(154,153)"/>
<path d="M0 0 C11.57894737 0 11.57894737 0 16 4 C18.75374623 7.26101527 19.89487343 9.26411399 20.5 13.5 C19.72334399 18.93659206 17.38157335 21.75000507 13.375 25.375 C10 27 10 27 0 27 C0 18.09 0 9.18 0 0 Z " fill="#737F9D" transform="translate(442,451)"/>
<path d="M0 0 C4.64061703 2.60980697 8.20539841 5.88264794 9.72265625 11.1171875 C10.46107407 16.83992563 10.55458593 21.48201538 7.91015625 26.6796875 C6.82734375 27.88625 6.82734375 27.88625 5.72265625 29.1171875 C4.91828125 30.0453125 4.91828125 30.0453125 4.09765625 30.9921875 C2.72265625 32.1171875 2.72265625 32.1171875 0.72265625 32.1171875 C1.74359375 33.509375 1.74359375 33.509375 2.78515625 34.9296875 C3.42453125 35.9815625 4.06390625 37.0334375 4.72265625 38.1171875 C4.39265625 39.1071875 4.06265625 40.0971875 3.72265625 41.1171875 C1.1983624 40.03534728 -0.20271054 39.20840587 -1.96484375 37.0546875 C-4.56618219 34.87518772 -5.38341828 34.84168657 -8.65234375 34.6171875 C-14.0010558 34.20507362 -17.13185649 32.5237658 -20.75390625 28.4609375 C-24.19744421 23.76695279 -25.05449315 19.58204471 -24.7578125 13.80078125 C-23.84532695 8.70421561 -21.566126 5.16779698 -17.73828125 1.73828125 C-12.41586613 -1.88146553 -5.96150158 -2.3109766 0 0 Z M-17.27734375 7.1171875 C-20.39845513 11.44647103 -20.64735995 14.82933854 -19.85546875 19.93359375 C-18.77855619 24.00112161 -16.80440989 26.95872353 -13.46484375 29.4921875 C-9.0423587 30.75575466 -5.40512558 30.51522815 -1.08984375 28.9921875 C2.39140735 26.67135344 3.9022803 24.89796831 5.72265625 21.1171875 C6.5499604 16.40661897 6.17760098 13.06207271 4.09765625 8.7421875 C0.50440259 4.77069661 -2.47746193 3.34217273 -7.77734375 2.6796875 C-12.04240375 3.21282 -14.03328213 4.31549792 -17.27734375 7.1171875 Z " fill="#425484" transform="translate(259.27734375,85.8828125)"/>
<path d="M0 0 C46.86 0 93.72 0 142 0 C142 0.99 142 1.98 142 3 C95.14 3 48.28 3 0 3 C0 2.01 0 1.02 0 0 Z " fill="#384B7D" transform="translate(244,296)"/>
<path d="M0 0 C0.32469403 4.65394781 -0.20209482 7.23358918 -3 11 C-5.28631494 12.14315747 -6.54347406 12.12112732 -9.08251953 12.11352539 C-10.34360031 12.11341209 -10.34360031 12.11341209 -11.63015747 12.11329651 C-12.99272171 12.10555458 -12.99272171 12.10555458 -14.3828125 12.09765625 C-15.31221649 12.0962413 -16.24162048 12.09482635 -17.19918823 12.09336853 C-20.17449124 12.08776053 -23.14971964 12.07520668 -26.125 12.0625 C-28.13932183 12.05748603 -30.15364484 12.05292295 -32.16796875 12.04882812 C-37.11200802 12.0377885 -42.05599135 12.02051849 -47 12 C-46.67 8.37 -46.34 4.74 -46 1 C-45.67 1.99 -45.34 2.98 -45 4 C-39.53690612 3.93103982 -34.07457152 3.84303246 -28.61206055 3.73754883 C-26.7547245 3.70434451 -24.89728863 3.67629859 -23.03979492 3.65356445 C-20.36594202 3.61993558 -17.69300007 3.56761626 -15.01953125 3.51171875 C-14.19226028 3.50532883 -13.36498932 3.4989389 -12.51264954 3.49235535 C-7.94863231 3.37659777 -3.71164653 0 0 0 Z " fill="#D5C74B" transform="translate(218,408)"/>
<path d="M0 0 C0.99 0 1.98 0 3 0 C2.56535472 5.32038014 0.45627353 8.51710016 -2.625 12.6875 C-5.82598491 17.27429578 -7.66032981 20.33458916 -6.9375 26.125 C-6.74027344 26.97320312 -6.54304688 27.82140625 -6.33984375 28.6953125 C-5.92018512 31.5412733 -6.39053078 32.64886315 -8 35 C-11 37 -11 37 -14.5625 37.5 C-18.0571192 37.65847757 -18.0571192 37.65847757 -20 40 C-20.99 40 -21.98 40 -23 40 C-22.979375 38.88625 -22.95875 37.7725 -22.9375 36.625 C-22.73619282 33.16784079 -22.73619282 33.16784079 -24 31 C-24.53252058 27.00609564 -24.35389756 25.48258758 -21.9375 22.1875 C-19 20 -19 20 -15.70703125 19.9609375 C-10.72880567 18.67048071 -9.80129356 16.44361236 -7.265625 12.15820312 C-6.76546875 11.26037109 -6.2653125 10.36253906 -5.75 9.4375 C-4.7334908 7.65987954 -3.70790075 5.88741085 -2.671875 4.12109375 C-2.00816895 2.93664673 -2.00816895 2.93664673 -1.33105469 1.72827148 C-0.67218262 0.8727771 -0.67218262 0.8727771 0 0 Z " fill="#445685" transform="translate(109,373)"/>
<path d="M0 0 C4.00624144 4.00624144 5.15033427 6.82987295 5.1875 12.375 C5.20167969 13.33148438 5.21585938 14.28796875 5.23046875 15.2734375 C4.99745572 18.03010017 4.40920164 19.64947395 3 22 C2.51789063 21.566875 2.03578125 21.13375 1.5390625 20.6875 C0.90742188 20.130625 0.27578125 19.57375 -0.375 19 C-1.00148437 18.443125 -1.62796875 17.88625 -2.2734375 17.3125 C-3.90389833 15.79827513 -3.90389833 15.79827513 -6 16 C-4.9007566 18.56490126 -3.87156808 20.12843192 -1.875 22.125 C0 24 0 24 0 26 C-6.30933333 26.48533333 -6.30933333 26.48533333 -9.3125 24.375 C-12.75845019 19.52514417 -13.52469093 14.8765384 -13 9 C-10.15475337 1.9546274 -7.98984757 -1.12138212 0 0 Z " fill="#FDA19A" transform="translate(173,265)"/>
<path d="M0 0 C3.68570276 3.59119756 4.26222062 6.66270745 4.375 11.625 C4.32320311 15.32329828 3.87885478 17.79843146 2 21 C1.51789063 20.566875 1.03578125 20.13375 0.5390625 19.6875 C-0.09257812 19.130625 -0.72421875 18.57375 -1.375 18 C-2.00148437 17.443125 -2.62796875 16.88625 -3.2734375 16.3125 C-4.90389833 14.79827513 -4.90389833 14.79827513 -7 15 C-5.33248852 18.94139078 -2.77289351 21.7892812 0 25 C-3.1875 25.8125 -3.1875 25.8125 -7 26 C-10.20082983 23.49500274 -11.7127358 21.8617926 -13 18 C-13.17066284 15.87930439 -13.2662598 13.75204902 -13.3125 11.625 C-13.34988281 10.50351563 -13.38726562 9.38203125 -13.42578125 8.2265625 C-12.91371636 4.34614414 -11.70908823 2.76437575 -9 0 C-5.74048884 -1.62975558 -3.45293671 -0.89300087 0 0 Z " fill="#7CFCDE" transform="translate(174,161)"/>
<path d="M0 0 C0 7.59 0 15.18 0 23 C-4.47671433 22.10465713 -7.32321681 20.99789901 -11.3125 18.9375 C-12.38113281 18.38964844 -13.44976562 17.84179688 -14.55078125 17.27734375 C-15.35902344 16.85582031 -16.16726562 16.43429687 -17 16 C-17 13.03 -17 10.06 -17 7 C-14.73272667 5.82592979 -12.46165376 4.66060261 -10.1875 3.5 C-9.22360352 2.99919922 -9.22360352 2.99919922 -8.24023438 2.48828125 C-5.30452301 0.99760916 -3.33873483 0 0 0 Z " fill="#F8C78E" transform="translate(267,453)"/>
<path d="M0 0 C2.475 0.495 2.475 0.495 5 1 C5.06058594 2.28777344 5.12117188 3.57554688 5.18359375 4.90234375 C5.26798247 6.58074159 5.3526313 8.25912636 5.4375 9.9375 C5.47681641 10.78763672 5.51613281 11.63777344 5.55664062 12.51367188 C5.59853516 13.32255859 5.64042969 14.13144531 5.68359375 14.96484375 C5.72025146 15.7137085 5.75690918 16.46257324 5.79467773 17.23413086 C5.81771063 19.02461326 5.81771063 19.02461326 7 20 C10.08264121 20.27401255 12.30878818 20.31236251 15.15234375 19.02734375 C18.05237204 15.84528311 17.67480941 12.47874231 17.75 8.3125 C17.77964844 7.51521484 17.80929687 6.71792969 17.83984375 5.89648438 C17.91044082 3.93153251 17.95749708 1.96576023 18 0 C20.475 0.495 20.475 0.495 23 1 C23 8.59 23 16.18 23 24 C21.68 24.33 20.36 24.66 19 25 C18.34 24.01 17.68 23.02 17 22 C16.505 22.495 16.01 22.99 15.5 23.5 C12.01069153 25.59358508 8.97843508 25.75157295 5 25 C2.03141843 22.79259319 1.17134209 21.51402627 0 18 C-0.08021999 16.59175107 -0.10765977 15.18002769 -0.09765625 13.76953125 C-0.09282227 12.56586914 -0.09282227 12.56586914 -0.08789062 11.33789062 C-0.07951172 10.50451172 -0.07113281 9.67113281 -0.0625 8.8125 C-0.05798828 7.96751953 -0.05347656 7.12253906 -0.04882812 6.25195312 C-0.03705403 4.16793845 -0.0191189 2.08396023 0 0 Z " fill="#4B5C89" transform="translate(275,95)"/>
<path d="M0 0 C2.96441013 1.26145112 4.43744933 2.22314432 6.3125 4.8125 C7 7 7 7 7 13 C-0.26 13 -7.52 13 -15 13 C-15 6 -15 6 -12 2 C-7.95514343 -0.69657104 -4.74692804 -0.5422677 0 0 Z " fill="#07B4DB" transform="translate(98,311)"/>
<path d="M0 0 C6.27 0 12.54 0 19 0 C19.33 1.32 19.66 2.64 20 4 C18.3046875 6.33203125 18.3046875 6.33203125 15.875 8.8125 C12.18027411 12.70320199 8.99490552 16.55594664 6 21 C10.62 21 15.24 21 20 21 C19.67 22.32 19.34 23.64 19 25 C13.06 25 7.12 25 1 25 C0.67 23.35 0.34 21.7 0 20 C1.73046875 17.5 1.73046875 17.5 4.1875 15 C7.3076213 11.77402645 10.24511412 8.54651975 13 5 C9.04 4.67 5.08 4.34 1 4 C0.67 2.68 0.34 1.36 0 0 Z " fill="#445685" transform="translate(316,95)"/>
<path d="M0 0 C2.97 0 5.94 0 9 0 C9 8.91 9 17.82 9 27 C6.03 27 3.06 27 0 27 C0 18.09 0 9.18 0 0 Z " fill="#E5EFF5" transform="translate(430,451)"/>
<path d="M0 0 C2.75 0.4375 2.75 0.4375 5.5 3.3125 C8.39755978 7.33688858 8.88796314 8.99437697 8.875 13.875 C8.87757813 14.84308594 8.88015625 15.81117188 8.8828125 16.80859375 C8.75 19.4375 8.75 19.4375 7.75 22.4375 C2.31100266 19.89930124 2.31100266 19.89930124 1.06396484 16.64990234 C0.86496582 15.94816895 0.6659668 15.24643555 0.4609375 14.5234375 C0.24179688 13.76289063 0.02265625 13.00234375 -0.203125 12.21875 C-0.42484375 11.4246875 -0.6465625 10.630625 -0.875 9.8125 C-1.10445312 9.01070313 -1.33390625 8.20890625 -1.5703125 7.3828125 C-2.13605789 5.40270363 -2.69379429 3.42030967 -3.25 1.4375 C-2.25 0.4375 -2.25 0.4375 0 0 Z " fill="#FDF29C" transform="translate(169.25,368.5625)"/>
<path d="M0 0 C2.96482674 0.13789892 5.21234484 0.28944336 7.4765625 2.33203125 C11.43966634 7.09470867 12.51703472 9.79558332 12 16 C9.96057696 19.78749994 7.85632129 22.95132931 4 25 C1.75 24.6875 1.75 24.6875 0 24 C0.66 24 1.32 24 2 24 C5.38238102 17.46073003 6.08903264 11.10481535 4.1875 3.9375 C3.08389267 1.6704087 3.08389267 1.6704087 0 1 C0 0.67 0 0.34 0 0 Z " fill="#9AA3B9" transform="translate(450,452)"/>
<path d="M0 0 C1.98 0.495 1.98 0.495 4 1 C4 8.59 4 16.18 4 24 C2.68 24.33 1.36 24.66 0 25 C-1.68516954 23.31483046 -1.13008019 21.21232212 -1.1328125 18.90625 C-1.13474609 17.36130859 -1.13474609 17.36130859 -1.13671875 15.78515625 C-1.13285156 14.70105469 -1.12898438 13.61695312 -1.125 12.5 C-1.12886719 11.41589844 -1.13273437 10.33179687 -1.13671875 9.21484375 C-1.13542969 8.18488281 -1.13414062 7.15492187 -1.1328125 6.09375 C-1.13168457 5.14177734 -1.13055664 4.18980469 -1.12939453 3.20898438 C-1 1 -1 1 0 0 Z " fill="#4E5F8C" transform="translate(306,95)"/>
<path d="M0 0 C3.0625 1.3125 3.0625 1.3125 5 3 C5 3.99 5 4.98 5 6 C-0.94 6 -6.88 6 -13 6 C-11.21413252 -1.1434699 -6.33994936 -0.73281376 0 0 Z " fill="#01C1E6" transform="translate(98,311)"/>
<path d="M0 0 C3 0.25 3 0.25 5 2.25 C5.25 4.75 5.25 4.75 5 7.25 C3 9.25 3 9.25 0 9.5 C-3 9.25 -3 9.25 -5 7.25 C-5.25 4.75 -5.25 4.75 -5 2.25 C-3 0.25 -3 0.25 0 0 Z " fill="#A1B9CE" transform="translate(94,396.75)"/>
<path d="M0 0 C2.74148672 0.37047118 4.58593199 0.68587944 6.8125 2.375 C8 4 8 4 8 7 C5.25851328 6.62952882 3.41406801 6.31412056 1.1875 4.625 C0 3 0 3 0 0 Z " fill="#506490" transform="translate(122,431)"/>
<path d="M0 0 C-0.55704728 3.23087421 -1.33187535 5.02361137 -4 7 C-5.32 7 -6.64 7 -8 7 C-7.08529012 1.6946827 -5.46561428 0 0 0 Z " fill="#566690" transform="translate(66,431)"/>
<path d="M0 0 C0.598125 0.226875 1.19625 0.45375 1.8125 0.6875 C0.66076645 3.15550047 -0.23533565 4.73533565 -2.1875 6.6875 C-3.5075 6.6875 -4.8275 6.6875 -6.1875 6.6875 C-5.78066505 4.32785727 -5.28935661 2.82815912 -3.875 0.875 C-2.1875 -0.3125 -2.1875 -0.3125 0 0 Z " fill="#53638E" transform="translate(128.1875,367.3125)"/>
<path d="M0 0 C3.23490776 0.55774272 4.97855006 1.37211508 7 4 C7 4.99 7 5.98 7 7 C3.31245243 6.50168276 1.39509338 5.89932357 -1 3 C-0.67 2.01 -0.34 1.02 0 0 Z " fill="#52638E" transform="translate(59,367)"/>
<path d="M0 0 C0.99 0.33 1.98 0.66 3 1 C3 3.64 3 6.28 3 9 C1.68 9 0.36 9 -1 9 C-1.09765625 2.84765625 -1.09765625 2.84765625 -1 1 C-0.67 0.67 -0.34 0.34 0 0 Z " fill="#495C89" transform="translate(93,443)"/>
<path d="M0 0 C1.2065625 0.0309375 1.2065625 0.0309375 2.4375 0.0625 C2.7675 1.7125 3.0975 3.3625 3.4375 5.0625 C1.4575 5.0625 -0.5225 5.0625 -2.5625 5.0625 C-3.125 3.125 -3.125 3.125 -3.5625 1.0625 C-2.5625 0.0625 -2.5625 0.0625 0 0 Z " fill="#354C7D" transform="translate(493.5625,476.9375)"/>
<path d="M0 0 C0.99 0.33 1.98 0.66 3 1 C3 3.31 3 5.62 3 8 C1.68 8 0.36 8 -1 8 C-1.04241723 5.66705225 -1.04092937 3.33297433 -1 1 C-0.67 0.67 -0.34 0.34 0 0 Z " fill="#445685" transform="translate(93,353)"/>
<path d="M0 0 C1.65 0.33 3.3 0.66 5 1 C5 2.32 5 3.64 5 5 C3.02 5 1.04 5 -1 5 C-0.67 3.35 -0.34 1.7 0 0 Z " fill="#344A78" transform="translate(16,477)"/>
<path d="M0 0 C2.97 0 5.94 0 9 0 C9 0.99 9 1.98 9 3 C6.03 3 3.06 3 0 3 C0 2.01 0 1.02 0 0 Z " fill="#415484" transform="translate(135,401)"/>
<path d="M0 0 C2.64 0 5.28 0 8 0 C8 0.99 8 1.98 8 3 C5.36 3 2.72 3 0 3 C0 2.01 0 1.02 0 0 Z " fill="#384B7D" transform="translate(45,401)"/>
<path d="M0 0 C1.65 0 3.3 0 5 0 C4.67 1.65 4.34 3.3 4 5 C2.68 4.67 1.36 4.34 0 4 C0 2.68 0 1.36 0 0 Z " fill="#51628D" transform="translate(305,85)"/>
<path d="M0 0 C3 1 3 1 3.984375 2.7421875 C4.23703125 3.44601562 4.4896875 4.14984375 4.75 4.875 C5.01296875 5.57367188 5.2759375 6.27234375 5.546875 6.9921875 C6 9 6 9 5 12 C4.16180842 10.37750059 3.3295884 8.75191503 2.5 7.125 C2.0359375 6.22007812 1.571875 5.31515625 1.09375 4.3828125 C0 2 0 2 0 0 Z " fill="#6BD4EB" transform="translate(25,431)"/>
<path d="M0 0 C3.95820859 0.56545837 6.6659053 1.80902348 10 4 C8 5 8 5 5.8359375 4.44140625 C5.02382812 4.15136719 4.21171875 3.86132812 3.375 3.5625 C2.55773437 3.27503906 1.74046875 2.98757813 0.8984375 2.69140625 C0.27195312 2.46324219 -0.35453125 2.23507812 -1 2 C-0.67 1.34 -0.34 0.68 0 0 Z " fill="#6CD1E8" transform="translate(123,334)"/>
</svg>
